G04 ================== begin FILE IDENTIFICATION RECORD ==================*
G04 Layout Name:  SIMPLEBOARD.brd*
G04 Film Name:    silkScreen*
G04 File Format:  Gerber RS274X*
G04 File Origin:  Cadence Allegro 17.2-P019*
G04 Origin Date:  Mon Sep 21 17:09:03 2020*
G04 *
G04 Layer:  BOUNDARY/MULTI_USER_LOCK*
G04 Layer:  REF DES/SILKSCREEN_TOP*
G04 Layer:  PACKAGE GEOMETRY/SILKSCREEN_TOP*
G04 Layer:  MANUFACTURING/AUTOSILK_TOP*
G04 Layer:  COMPONENT VALUE/SILKSCREEN_TOP*
G04 Layer:  BOARD GEOMETRY/OUTLINE*
G04 Layer:  BOARD GEOMETRY/SILKSCREEN_TOP*
G04 *
G04 Offset:    (0.00 0.00)*
G04 Mirror:    No*
G04 Mode:      Positive*
G04 Rotation:  0*
G04 FullContactRelief:  No*
G04 UndefLineWidth:     10.00*
G04 ================== end FILE IDENTIFICATION RECORD ====================*
%FSLAX25Y25*MOIN*%
%IR0*IPPOS*OFA0.00000B0.00000*MIA0B0*SFA1.00000B1.00000*%
%ADD10C,.01*%
G75*
%LPD*%
G75*
G54D10*
G01X1450000Y540000D02*
Y940000D01*
X1050000D01*
Y540000D01*
X1450000D01*
G01X1100000Y868000D02*
X1101400Y860000D01*
X1103000Y868000D01*
X1104600Y860000D01*
X1106000Y868000D01*
G01X1109300Y860000D02*
Y868000D01*
G01Y864133D02*
X1109800Y864800D01*
X1110300Y865200D01*
X1111100Y865333D01*
X1111700Y865200D01*
X1112400Y864667D01*
X1112700Y863867D01*
Y860000D01*
G01X1117500Y863600D02*
X1120700D01*
X1120400Y864533D01*
X1119900Y865067D01*
X1119200Y865333D01*
X1118500Y865200D01*
X1117900Y864800D01*
X1117500Y863867D01*
X1117300Y863066D01*
Y862267D01*
X1117500Y861467D01*
X1118000Y860667D01*
X1118600Y860133D01*
X1119300Y860000D01*
X1120000Y860267D01*
X1120700Y861066D01*
G01X1125600Y860000D02*
Y865333D01*
G01Y864267D02*
X1126100Y864800D01*
X1126600Y865200D01*
X1127300Y865333D01*
X1127800Y865200D01*
X1128400Y864800D01*
G01X1133500Y863600D02*
X1136700D01*
X1136400Y864533D01*
X1135900Y865067D01*
X1135200Y865333D01*
X1134500Y865200D01*
X1133900Y864800D01*
X1133500Y863867D01*
X1133300Y863066D01*
Y862267D01*
X1133500Y861467D01*
X1134000Y860667D01*
X1134600Y860133D01*
X1135300Y860000D01*
X1136000Y860267D01*
X1136700Y861066D01*
G01X1151000Y865333D02*
Y860000D01*
G01Y867467D02*
X1150800Y867600D01*
Y867867D01*
X1151000Y868000D01*
X1151200Y867867D01*
Y867600D01*
X1151000Y867467D01*
G01X1157500Y860933D02*
X1158000Y860400D01*
X1158700Y860000D01*
X1159300D01*
X1159900Y860267D01*
X1160300Y860667D01*
X1160500Y861200D01*
X1160400Y862000D01*
X1160000Y862400D01*
X1158200Y863200D01*
X1157800Y864133D01*
X1158000Y864800D01*
X1158400Y865200D01*
X1159000Y865333D01*
X1159600Y865200D01*
X1160200Y864800D01*
G01X1172000Y860000D02*
Y865333D01*
G01Y863867D02*
X1172300Y864533D01*
X1172800Y865067D01*
X1173500Y865333D01*
X1174200Y865067D01*
X1174700Y864533D01*
X1175000Y863867D01*
Y860000D01*
G01Y863867D02*
X1175300Y864533D01*
X1175800Y865067D01*
X1176500Y865333D01*
X1177200Y865067D01*
X1177700Y864533D01*
X1178000Y863733D01*
Y860000D01*
G01X1180900Y857600D02*
X1181500Y857333D01*
X1182300Y857600D01*
X1182800Y858133D01*
X1183200Y858800D01*
X1183800Y860933D01*
X1185100Y865333D01*
G01X1181900D02*
X1183800Y860933D01*
G01X1197500D02*
X1198000Y860400D01*
X1198700Y860000D01*
X1199300D01*
X1199900Y860267D01*
X1200300Y860667D01*
X1200500Y861200D01*
X1200400Y862000D01*
X1200000Y862400D01*
X1198200Y863200D01*
X1197800Y864133D01*
X1198000Y864800D01*
X1198400Y865200D01*
X1199000Y865333D01*
X1199600Y865200D01*
X1200200Y864800D01*
G01X1205300Y865333D02*
Y861600D01*
X1205700Y860667D01*
X1206300Y860133D01*
X1207000Y860000D01*
X1207700Y860133D01*
X1208300Y860667D01*
X1208700Y861600D01*
G01Y860000D02*
Y865333D01*
G01X1213200Y857333D02*
Y865333D01*
G01Y864133D02*
X1213700Y864800D01*
X1214200Y865200D01*
X1215000Y865333D01*
X1215700Y865200D01*
X1216400Y864533D01*
X1216700Y863600D01*
X1216800Y862667D01*
X1216700Y861733D01*
X1216400Y860800D01*
X1215800Y860267D01*
X1215000Y860000D01*
X1214300Y860133D01*
X1213600Y860533D01*
X1213200Y861066D01*
G01X1221500Y863600D02*
X1224700D01*
X1224400Y864533D01*
X1223900Y865067D01*
X1223200Y865333D01*
X1222500Y865200D01*
X1221900Y864800D01*
X1221500Y863867D01*
X1221300Y863066D01*
Y862267D01*
X1221500Y861467D01*
X1222000Y860667D01*
X1222600Y860133D01*
X1223300Y860000D01*
X1224000Y860267D01*
X1224700Y861066D01*
G01X1229600Y860000D02*
Y865333D01*
G01Y864267D02*
X1230100Y864800D01*
X1230600Y865200D01*
X1231300Y865333D01*
X1231800Y865200D01*
X1232400Y864800D01*
G01X1237500Y860933D02*
X1238000Y860400D01*
X1238700Y860000D01*
X1239300D01*
X1239900Y860267D01*
X1240300Y860667D01*
X1240500Y861200D01*
X1240400Y862000D01*
X1240000Y862400D01*
X1238200Y863200D01*
X1237800Y864133D01*
X1238000Y864800D01*
X1238400Y865200D01*
X1239000Y865333D01*
X1239600Y865200D01*
X1240200Y864800D01*
G01X1245300Y865333D02*
Y861600D01*
X1245700Y860667D01*
X1246300Y860133D01*
X1247000Y860000D01*
X1247700Y860133D01*
X1248300Y860667D01*
X1248700Y861600D01*
G01Y860000D02*
Y865333D01*
G01X1255000D02*
Y860000D01*
G01Y867467D02*
X1254800Y867600D01*
Y867867D01*
X1255000Y868000D01*
X1255200Y867867D01*
Y867600D01*
X1255000Y867467D01*
G01X1263000Y868000D02*
Y860000D01*
G01X1261600Y865333D02*
X1264400D01*
G01X1271000Y859733D02*
X1270800Y859867D01*
Y860133D01*
X1271000Y860267D01*
X1271200Y860133D01*
Y859867D01*
X1271000Y859733D01*
G01Y861467D02*
Y863467D01*
X1271200Y864267D01*
X1271600Y864800D01*
X1272000Y865200D01*
X1272300Y865867D01*
Y866533D01*
X1272100Y867200D01*
X1271700Y867733D01*
X1271000Y868000D01*
X1270500Y867867D01*
X1270000Y867467D01*
X1269700Y866933D01*
G01X1130480Y872500D02*
X1131120D01*
G01X1130800D02*
Y870000D01*
G01X1130480D02*
X1131120D01*
G01X1132840D02*
Y872125D01*
X1132893Y872333D01*
X1133000Y872458D01*
X1133160Y872500D01*
X1133320Y872417D01*
X1133400Y872208D01*
G01X1133080Y871500D02*
X1132547D01*
G01X1136840Y869250D02*
X1137000Y869167D01*
X1137213Y869250D01*
X1137347Y869417D01*
X1137453Y869625D01*
X1137613Y870292D01*
X1137960Y871667D01*
G01X1137107D02*
X1137613Y870292D01*
G01X1139600Y870000D02*
X1139440Y870042D01*
X1139280Y870208D01*
X1139173Y870500D01*
X1139120Y870833D01*
X1139173Y871167D01*
X1139280Y871458D01*
X1139440Y871625D01*
X1139600Y871667D01*
X1139760Y871625D01*
X1139920Y871458D01*
X1140027Y871167D01*
X1140053Y870833D01*
X1140027Y870500D01*
X1139920Y870208D01*
X1139760Y870042D01*
X1139600Y870000D01*
G01X1141347Y871667D02*
Y870500D01*
X1141453Y870208D01*
X1141613Y870042D01*
X1141800Y870000D01*
X1141987Y870042D01*
X1142147Y870208D01*
X1142253Y870500D01*
G01Y870000D02*
Y871667D01*
G01X1146627Y871458D02*
X1146440Y871625D01*
X1146280Y871667D01*
X1146067Y871583D01*
X1145907Y871417D01*
X1145800Y871125D01*
X1145773Y870833D01*
X1145800Y870542D01*
X1145907Y870292D01*
X1146067Y870083D01*
X1146280Y870000D01*
X1146467Y870083D01*
X1146627Y870250D01*
G01X1148880Y870000D02*
Y871667D01*
G01Y871375D02*
X1148773Y871542D01*
X1148613Y871625D01*
X1148427Y871667D01*
X1148240Y871583D01*
X1148080Y871417D01*
X1147973Y871167D01*
X1147920Y870833D01*
X1147973Y870500D01*
X1148080Y870250D01*
X1148240Y870083D01*
X1148427Y870000D01*
X1148613Y870042D01*
X1148773Y870167D01*
X1148880Y870333D01*
G01X1150147Y870000D02*
Y871667D01*
G01Y871250D02*
X1150253Y871458D01*
X1150413Y871625D01*
X1150627Y871667D01*
X1150813Y871625D01*
X1150973Y871458D01*
X1151053Y871167D01*
Y870000D01*
G01X1154627D02*
Y871667D01*
G01Y871333D02*
X1154760Y871500D01*
X1154893Y871625D01*
X1155080Y871667D01*
X1155213Y871625D01*
X1155373Y871500D01*
G01X1156800Y871125D02*
X1157653D01*
X1157573Y871417D01*
X1157440Y871583D01*
X1157253Y871667D01*
X1157067Y871625D01*
X1156907Y871500D01*
X1156800Y871208D01*
X1156747Y870958D01*
Y870708D01*
X1156800Y870458D01*
X1156933Y870208D01*
X1157093Y870042D01*
X1157280Y870000D01*
X1157467Y870083D01*
X1157653Y870333D01*
G01X1159880Y870000D02*
Y871667D01*
G01Y871375D02*
X1159773Y871542D01*
X1159613Y871625D01*
X1159427Y871667D01*
X1159240Y871583D01*
X1159080Y871417D01*
X1158973Y871167D01*
X1158920Y870833D01*
X1158973Y870500D01*
X1159080Y870250D01*
X1159240Y870083D01*
X1159427Y870000D01*
X1159613Y870042D01*
X1159773Y870167D01*
X1159880Y870333D01*
G01X1162080Y872500D02*
Y870000D01*
G01Y870375D02*
X1161973Y870167D01*
X1161813Y870042D01*
X1161627Y870000D01*
X1161413Y870083D01*
X1161253Y870292D01*
X1161147Y870542D01*
X1161120Y870833D01*
X1161147Y871125D01*
X1161253Y871375D01*
X1161413Y871583D01*
X1161627Y871667D01*
X1161813Y871625D01*
X1161947Y871542D01*
X1162080Y871375D01*
G01X1166000Y872500D02*
Y870000D01*
G01X1165627Y871667D02*
X1166373D01*
G01X1167747Y870000D02*
Y872500D01*
G01Y871292D02*
X1167880Y871500D01*
X1168013Y871625D01*
X1168227Y871667D01*
X1168387Y871625D01*
X1168573Y871458D01*
X1168653Y871208D01*
Y870000D01*
G01X1170400Y871667D02*
Y870000D01*
G01Y872333D02*
X1170347Y872375D01*
Y872458D01*
X1170400Y872500D01*
X1170453Y872458D01*
Y872375D01*
X1170400Y872333D01*
G01X1172200Y870292D02*
X1172333Y870125D01*
X1172520Y870000D01*
X1172680D01*
X1172840Y870083D01*
X1172947Y870208D01*
X1173000Y870375D01*
X1172973Y870625D01*
X1172867Y870750D01*
X1172387Y871000D01*
X1172280Y871292D01*
X1172333Y871500D01*
X1172440Y871625D01*
X1172600Y871667D01*
X1172760Y871625D01*
X1172920Y871500D01*
G01X1174747Y869542D02*
X1174853Y870083D01*
G01X1179200Y871667D02*
Y870000D01*
G01Y872333D02*
X1179147Y872375D01*
Y872458D01*
X1179200Y872500D01*
X1179253Y872458D01*
Y872375D01*
X1179200Y872333D01*
G01X1181400Y872500D02*
Y870000D01*
G01X1181027Y871667D02*
X1181773D01*
G01X1183200Y870292D02*
X1183333Y870125D01*
X1183520Y870000D01*
X1183680D01*
X1183840Y870083D01*
X1183947Y870208D01*
X1184000Y870375D01*
X1183973Y870625D01*
X1183867Y870750D01*
X1183387Y871000D01*
X1183280Y871292D01*
X1183333Y871500D01*
X1183440Y871625D01*
X1183600Y871667D01*
X1183760Y871625D01*
X1183920Y871500D01*
G01X1188000Y872500D02*
Y870000D01*
G01X1187627Y871667D02*
X1188373D01*
G01X1190200Y870000D02*
X1190040Y870042D01*
X1189880Y870208D01*
X1189773Y870500D01*
X1189720Y870833D01*
X1189773Y871167D01*
X1189880Y871458D01*
X1190040Y871625D01*
X1190200Y871667D01*
X1190360Y871625D01*
X1190520Y871458D01*
X1190627Y871167D01*
X1190653Y870833D01*
X1190627Y870500D01*
X1190520Y870208D01*
X1190360Y870042D01*
X1190200Y870000D01*
G01X1192400D02*
X1192240Y870042D01*
X1192080Y870208D01*
X1191973Y870500D01*
X1191920Y870833D01*
X1191973Y871167D01*
X1192080Y871458D01*
X1192240Y871625D01*
X1192400Y871667D01*
X1192560Y871625D01*
X1192720Y871458D01*
X1192827Y871167D01*
X1192853Y870833D01*
X1192827Y870500D01*
X1192720Y870208D01*
X1192560Y870042D01*
X1192400Y870000D01*
G01X1196800D02*
Y872500D01*
G01X1199480Y870000D02*
Y871667D01*
G01Y871375D02*
X1199373Y871542D01*
X1199213Y871625D01*
X1199027Y871667D01*
X1198840Y871583D01*
X1198680Y871417D01*
X1198573Y871167D01*
X1198520Y870833D01*
X1198573Y870500D01*
X1198680Y870250D01*
X1198840Y870083D01*
X1199027Y870000D01*
X1199213Y870042D01*
X1199373Y870167D01*
X1199480Y870333D01*
G01X1201200Y872500D02*
Y870000D01*
G01X1200827Y871667D02*
X1201573D01*
G01X1203000Y871125D02*
X1203853D01*
X1203773Y871417D01*
X1203640Y871583D01*
X1203453Y871667D01*
X1203267Y871625D01*
X1203107Y871500D01*
X1203000Y871208D01*
X1202947Y870958D01*
Y870708D01*
X1203000Y870458D01*
X1203133Y870208D01*
X1203293Y870042D01*
X1203480Y870000D01*
X1203667Y870083D01*
X1203853Y870333D01*
G01X1224000Y767500D02*
Y692500D01*
X1246000D01*
Y767500D01*
X1240000D01*
X1237500Y765000D01*
X1232500D01*
X1230000Y767500D01*
X1224000D01*
G01X1224950Y825000D02*
Y830000D01*
X1224190Y829000D01*
G01Y825000D02*
X1225710D01*
G01X1228657D02*
Y830000D01*
G01X1231063D02*
X1228657Y826917D01*
G01X1231443Y825000D02*
X1229733Y828333D01*
G01X1218683Y832500D02*
Y837500D01*
X1220267D01*
X1220773Y837250D01*
X1221090Y836917D01*
X1221217Y836250D01*
X1221090Y835583D01*
X1220710Y835167D01*
X1220267Y834917D01*
X1218683D01*
G01X1220267D02*
X1221217Y832500D01*
G01X1225050D02*
Y837500D01*
X1224290Y836500D01*
G01Y832500D02*
X1225810D01*
G01X1205000Y810000D02*
Y840000D01*
X1215000D01*
Y810000D01*
X1205000D01*
G01X1257223Y725000D02*
X1257350Y726083D01*
X1257540Y727000D01*
X1257793Y727833D01*
X1258110Y728750D01*
X1258617Y730000D01*
X1256083D01*
G01X1263210Y725000D02*
Y730000D01*
X1260867Y726417D01*
X1264033D01*
G01X1267550Y725000D02*
X1267993Y725083D01*
X1268500Y725333D01*
X1268817Y725750D01*
X1268943Y726333D01*
X1268817Y726917D01*
X1268437Y727417D01*
X1267867Y727667D01*
X1267233D01*
X1266853Y727833D01*
X1266537Y728250D01*
X1266410Y728833D01*
X1266600Y729417D01*
X1267043Y729833D01*
X1267550Y730000D01*
X1268057Y729833D01*
X1268500Y729417D01*
X1268690Y728833D01*
X1268563Y728250D01*
X1268247Y727833D01*
X1267867Y727667D01*
X1267233D01*
X1266663Y727417D01*
X1266283Y726917D01*
X1266157Y726333D01*
X1266283Y725750D01*
X1266600Y725333D01*
X1267107Y725083D01*
X1267550Y725000D01*
G01X1271447Y727083D02*
X1271890Y727667D01*
X1272270Y728000D01*
X1272777Y728167D01*
X1273220Y728000D01*
X1273537Y727667D01*
X1273790Y727167D01*
X1273853Y726583D01*
X1273790Y726083D01*
X1273537Y725583D01*
X1273157Y725167D01*
X1272713Y725000D01*
X1272207Y725167D01*
X1271763Y725667D01*
X1271510Y726417D01*
X1271447Y727250D01*
X1271573Y728333D01*
X1271763Y728917D01*
X1272080Y729500D01*
X1272523Y729917D01*
X1272967Y730000D01*
X1273410Y729833D01*
X1273727Y729417D01*
G01X1258557Y752500D02*
Y748917D01*
X1258810Y748167D01*
X1259317Y747667D01*
X1259950Y747500D01*
X1260583Y747667D01*
X1261090Y748167D01*
X1261343Y748917D01*
Y752500D01*
G01X1265050Y747500D02*
Y752500D01*
X1264290Y751500D01*
G01Y747500D02*
X1265810D01*
G01X1255000Y810000D02*
Y840000D01*
X1265000D01*
Y810000D01*
X1255000D01*
G01X1284000Y657500D02*
Y582500D01*
X1306000D01*
Y657500D01*
X1300000D01*
X1297500Y655000D01*
X1292500D01*
X1290000Y657500D01*
X1284000D01*
G01X1274950Y825000D02*
Y830000D01*
X1274190Y829000D01*
G01Y825000D02*
X1275710D01*
G01X1278657D02*
Y830000D01*
G01X1281063D02*
X1278657Y826917D01*
G01X1281443Y825000D02*
X1279733Y828333D01*
G01X1268683Y832500D02*
Y837500D01*
X1270267D01*
X1270773Y837250D01*
X1271090Y836917D01*
X1271217Y836250D01*
X1271090Y835583D01*
X1270710Y835167D01*
X1270267Y834917D01*
X1268683D01*
G01X1270267D02*
X1271217Y832500D01*
G01X1273847Y836667D02*
X1274227Y837167D01*
X1274670Y837417D01*
X1275177Y837500D01*
X1275810Y837333D01*
X1276253Y836917D01*
X1276380Y836417D01*
X1276317Y835917D01*
X1276063Y835500D01*
X1274797Y834667D01*
X1274227Y834083D01*
X1273847Y833250D01*
X1273720Y832500D01*
X1276380D01*
G01X1317223Y615000D02*
X1317350Y616083D01*
X1317540Y617000D01*
X1317793Y617833D01*
X1318110Y618750D01*
X1318617Y620000D01*
X1316083D01*
G01X1323210Y615000D02*
Y620000D01*
X1320867Y616417D01*
X1324033D01*
G01X1326157Y616000D02*
X1326537Y615417D01*
X1327043Y615083D01*
X1327613Y615000D01*
X1328120Y615083D01*
X1328627Y615500D01*
X1328943Y616000D01*
X1329007Y616500D01*
X1328880Y617083D01*
X1328437Y617500D01*
X1327993Y617667D01*
X1327423D01*
G01X1327993D02*
X1328373Y617917D01*
X1328690Y618333D01*
X1328817Y618833D01*
X1328690Y619333D01*
X1328373Y619750D01*
X1327803Y620000D01*
X1327233Y619917D01*
X1326663Y619583D01*
G01X1331447Y619167D02*
X1331827Y619667D01*
X1332270Y619917D01*
X1332777Y620000D01*
X1333410Y619833D01*
X1333853Y619417D01*
X1333980Y618917D01*
X1333917Y618417D01*
X1333663Y618000D01*
X1332397Y617167D01*
X1331827Y616583D01*
X1331447Y615750D01*
X1331320Y615000D01*
X1333980D01*
G01X1318557Y642500D02*
Y638917D01*
X1318810Y638167D01*
X1319317Y637667D01*
X1319950Y637500D01*
X1320583Y637667D01*
X1321090Y638167D01*
X1321343Y638917D01*
Y642500D01*
G01X1323657Y638500D02*
X1324037Y637917D01*
X1324543Y637583D01*
X1325113Y637500D01*
X1325620Y637583D01*
X1326127Y638000D01*
X1326443Y638500D01*
X1326507Y639000D01*
X1326380Y639583D01*
X1325937Y640000D01*
X1325493Y640167D01*
X1324923D01*
G01X1325493D02*
X1325873Y640417D01*
X1326190Y640833D01*
X1326317Y641333D01*
X1326190Y641833D01*
X1325873Y642250D01*
X1325303Y642500D01*
X1324733Y642417D01*
X1324163Y642083D01*
G01X1314000Y767500D02*
Y692500D01*
X1336000D01*
Y767500D01*
X1330000D01*
X1327500Y765000D01*
X1322500D01*
X1320000Y767500D01*
X1314000D01*
G01X1314950Y825000D02*
Y830000D01*
X1314190Y829000D01*
G01Y825000D02*
X1315710D01*
G01X1318657D02*
Y830000D01*
G01X1321063D02*
X1318657Y826917D01*
G01X1321443Y825000D02*
X1319733Y828333D01*
G01X1308683Y832500D02*
Y837500D01*
X1310267D01*
X1310773Y837250D01*
X1311090Y836917D01*
X1311217Y836250D01*
X1311090Y835583D01*
X1310710Y835167D01*
X1310267Y834917D01*
X1308683D01*
G01X1310267D02*
X1311217Y832500D01*
G01X1313657Y833500D02*
X1314037Y832917D01*
X1314543Y832583D01*
X1315113Y832500D01*
X1315620Y832583D01*
X1316127Y833000D01*
X1316443Y833500D01*
X1316507Y834000D01*
X1316380Y834583D01*
X1315937Y835000D01*
X1315493Y835167D01*
X1314923D01*
G01X1315493D02*
X1315873Y835417D01*
X1316190Y835833D01*
X1316317Y836333D01*
X1316190Y836833D01*
X1315873Y837250D01*
X1315303Y837500D01*
X1314733Y837417D01*
X1314163Y837083D01*
G01X1295000Y810000D02*
Y840000D01*
X1305000D01*
Y810000D01*
X1295000D01*
G01X1347223Y725000D02*
X1347350Y726083D01*
X1347540Y727000D01*
X1347793Y727833D01*
X1348110Y728750D01*
X1348617Y730000D01*
X1346083D01*
G01X1353210Y725000D02*
Y730000D01*
X1350867Y726417D01*
X1354033D01*
G01X1357550Y730000D02*
X1357043Y729833D01*
X1356663Y729417D01*
X1356410Y728917D01*
X1356220Y728250D01*
X1356157Y727500D01*
X1356220Y726750D01*
X1356410Y726083D01*
X1356663Y725583D01*
X1357043Y725167D01*
X1357550Y725000D01*
X1358057Y725167D01*
X1358437Y725583D01*
X1358690Y726083D01*
X1358880Y726750D01*
X1358943Y727500D01*
X1358880Y728250D01*
X1358690Y728917D01*
X1358437Y729417D01*
X1358057Y729833D01*
X1357550Y730000D01*
G01X1362650Y725000D02*
X1363093Y725083D01*
X1363600Y725333D01*
X1363917Y725750D01*
X1364043Y726333D01*
X1363917Y726917D01*
X1363537Y727417D01*
X1362967Y727667D01*
X1362333D01*
X1361953Y727833D01*
X1361637Y728250D01*
X1361510Y728833D01*
X1361700Y729417D01*
X1362143Y729833D01*
X1362650Y730000D01*
X1363157Y729833D01*
X1363600Y729417D01*
X1363790Y728833D01*
X1363663Y728250D01*
X1363347Y727833D01*
X1362967Y727667D01*
X1362333D01*
X1361763Y727417D01*
X1361383Y726917D01*
X1361257Y726333D01*
X1361383Y725750D01*
X1361700Y725333D01*
X1362207Y725083D01*
X1362650Y725000D01*
G01X1348557Y752500D02*
Y748917D01*
X1348810Y748167D01*
X1349317Y747667D01*
X1349950Y747500D01*
X1350583Y747667D01*
X1351090Y748167D01*
X1351343Y748917D01*
Y752500D01*
G01X1353847Y751667D02*
X1354227Y752167D01*
X1354670Y752417D01*
X1355177Y752500D01*
X1355810Y752333D01*
X1356253Y751917D01*
X1356380Y751417D01*
X1356317Y750917D01*
X1356063Y750500D01*
X1354797Y749667D01*
X1354227Y749083D01*
X1353847Y748250D01*
X1353720Y747500D01*
X1356380D01*
G01X1348683Y832500D02*
Y837500D01*
X1350267D01*
X1350773Y837250D01*
X1351090Y836917D01*
X1351217Y836250D01*
X1351090Y835583D01*
X1350710Y835167D01*
X1350267Y834917D01*
X1348683D01*
G01X1350267D02*
X1351217Y832500D01*
G01X1355810D02*
Y837500D01*
X1353467Y833917D01*
X1356633D01*
G01X1335000Y810000D02*
Y840000D01*
X1345000D01*
Y810000D01*
X1335000D01*
G01X1354950Y825000D02*
Y830000D01*
X1354190Y829000D01*
G01Y825000D02*
X1355710D01*
G01X1358657D02*
Y830000D01*
G01X1361063D02*
X1358657Y826917D01*
G01X1361443Y825000D02*
X1359733Y828333D01*
M02*
