G04 ================== begin FILE IDENTIFICATION RECORD ==================*
G04 Layout Name:  SIMPLEBOARD.brd*
G04 Film Name:    TOP*
G04 File Format:  Gerber RS274X*
G04 File Origin:  Cadence Allegro 17.2-P019*
G04 Origin Date:  Mon Sep 21 17:09:35 2020*
G04 *
G04 Layer:  ETCH/TOP*
G04 Layer:  PIN/TOP*
G04 Layer:  VIA CLASS/TOP*
G04 *
G04 Offset:    (0.00 0.00)*
G04 Mirror:    No*
G04 Mode:      Positive*
G04 Rotation:  0*
G04 FullContactRelief:  No*
G04 UndefLineWidth:     10.00*
G04 ================== end FILE IDENTIFICATION RECORD ====================*
%FSLAX25Y25*MOIN*%
%IR0*IPPOS*OFA0.00000B0.00000*MIA0B0*SFA1.00000B1.00000*%
%ADD12C,.024*%
%ADD10C,.06*%
%ADD11R,.06X.06*%
%ADD13C,.02*%
%ADD14C,.005*%
G75*
%LPD*%
G75*
G54D10*
X1220000Y700000D03*
Y710000D03*
Y720000D03*
Y730000D03*
Y740000D03*
Y750000D03*
X1210000Y800000D03*
Y850000D03*
X1250000Y700000D03*
Y710000D03*
Y720000D03*
Y730000D03*
Y740000D03*
Y750000D03*
Y760000D03*
X1260000Y800000D03*
Y850000D03*
X1280000Y590000D03*
Y600000D03*
Y610000D03*
Y620000D03*
Y630000D03*
Y640000D03*
X1310000Y590000D03*
Y600000D03*
Y610000D03*
Y620000D03*
Y630000D03*
Y640000D03*
Y650000D03*
Y700000D03*
Y710000D03*
Y720000D03*
Y730000D03*
Y740000D03*
Y750000D03*
X1300000Y800000D03*
Y850000D03*
X1340000Y700000D03*
Y710000D03*
Y720000D03*
Y730000D03*
Y740000D03*
Y750000D03*
Y760000D03*
Y800000D03*
Y850000D03*
G54D11*
X1220000Y760000D03*
X1280000Y650000D03*
X1310000Y760000D03*
G54D12*
X1333000D03*
G54D13*
G01X1220000Y700000D02*
X1227000Y693000D01*
X1275500D01*
X1276500Y692000D01*
G01X1210000Y850000D02*
X1260000D01*
G01X1333000Y760000D02*
X1326000Y767000D01*
X1257000D01*
X1250000Y760000D01*
G01X1300000Y850000D02*
X1260000D01*
G01X1276500Y692000D02*
X1275500Y691000D01*
Y594500D01*
X1280000Y590000D01*
G01X1310000Y700000D02*
X1302000Y692000D01*
X1276500D01*
G01X1340000Y850000D02*
X1300000D01*
G01X1340000Y760000D02*
X1333000D01*
G54D14*
G01X1220000D02*
X1213250Y753250D01*
Y721250D01*
X1218250Y716250D01*
X1306250D01*
X1310000Y720000D01*
G01X1220000D02*
X1215250Y724750D01*
Y750750D01*
X1220250Y755750D01*
X1305750D01*
X1310000Y760000D01*
G01Y750000D02*
X1304750Y744750D01*
X1224750D01*
X1220000Y740000D01*
G01X1310000Y730000D02*
X1305250Y734750D01*
X1219750D01*
X1216250Y738250D01*
Y746250D01*
X1220000Y750000D01*
G01X1340000Y720000D02*
X1324750Y704750D01*
X1254750D01*
X1250000Y700000D01*
G01X1340000Y750000D02*
X1326750Y736750D01*
Y731250D01*
X1310250Y714750D01*
X1254750D01*
X1250000Y710000D01*
G01Y720000D02*
X1254750Y724750D01*
X1310250D01*
X1320750Y735250D01*
Y736250D01*
X1338250Y753750D01*
X1341750D01*
X1343750Y751750D01*
Y743750D01*
X1340000Y740000D01*
G01Y710000D02*
X1345750Y715750D01*
Y751250D01*
X1342250Y754750D01*
X1254750D01*
X1250000Y750000D01*
M02*
