G04 ================== begin FILE IDENTIFICATION RECORD ==================*
G04 Layout Name:  SIMPLEBOARD.brd*
G04 Film Name:    top_soldermask*
G04 File Format:  Gerber RS274X*
G04 File Origin:  Cadence Allegro 17.2-P019*
G04 Origin Date:  Mon Sep 21 17:09:03 2020*
G04 *
G04 Layer:  BOUNDARY/MULTI_USER_LOCK*
G04 Layer:  VIA CLASS/SOLDERMASK_TOP*
G04 Layer:  PIN/SOLDERMASK_TOP*
G04 Layer:  DRC ERROR CLASS/SOLDERMASK_TOP*
G04 *
G04 Offset:    (0.00 0.00)*
G04 Mirror:    No*
G04 Mode:      Positive*
G04 Rotation:  0*
G04 FullContactRelief:  No*
G04 UndefLineWidth:     10.00*
G04 ================== end FILE IDENTIFICATION RECORD ====================*
%FSLAX25Y25*MOIN*%
%IR0*IPPOS*OFA0.00000B0.00000*MIA0B0*SFA1.00000B1.00000*%
%ADD12C,.044*%
%ADD10C,.075*%
%ADD11R,.075X.075*%
%LPD*%
G75*
G54D10*
X1220000Y700000D03*
Y710000D03*
Y720000D03*
Y730000D03*
Y740000D03*
Y750000D03*
X1210000Y800000D03*
Y850000D03*
X1250000Y700000D03*
Y710000D03*
Y720000D03*
Y730000D03*
Y740000D03*
Y750000D03*
Y760000D03*
X1260000Y800000D03*
Y850000D03*
X1280000Y590000D03*
Y600000D03*
Y610000D03*
Y620000D03*
Y630000D03*
Y640000D03*
X1310000Y590000D03*
Y600000D03*
Y610000D03*
Y620000D03*
Y630000D03*
Y640000D03*
Y650000D03*
Y700000D03*
Y710000D03*
Y720000D03*
Y730000D03*
Y740000D03*
Y750000D03*
X1300000Y800000D03*
Y850000D03*
X1340000Y700000D03*
Y710000D03*
Y720000D03*
Y730000D03*
Y740000D03*
Y750000D03*
Y760000D03*
Y800000D03*
Y850000D03*
G54D11*
X1220000Y760000D03*
X1280000Y650000D03*
X1310000Y760000D03*
G54D12*
X1333000D03*
M02*
