G04 ================== begin FILE IDENTIFICATION RECORD ==================*
G04 Layout Name:  C:/Users/jbayert/Documents/GitHub/ECE424_PCBs/allegro/PCB_ASSIGN2.brd*
G04 Film Name:    bottom_soldermask*
G04 File Format:  Gerber RS274X*
G04 File Origin:  Cadence Allegro 17.2-P019*
G04 Origin Date:  Sat Sep 26 19:07:52 2020*
G04 *
G04 Layer:  BOUNDARY/MULTI_USER_LOCK*
G04 Layer:  VIA CLASS/SOLDERMASK_BOTTOM*
G04 Layer:  PIN/SOLDERMASK_BOTTOM*
G04 Layer:  DRC ERROR CLASS/SOLDERMASK_BOTTOM*
G04 *
G04 Offset:    (0.00 0.00)*
G04 Mirror:    No*
G04 Mode:      Positive*
G04 Rotation:  0*
G04 FullContactRelief:  No*
G04 UndefLineWidth:     10.00*
G04 ================== end FILE IDENTIFICATION RECORD ====================*
%FSLAX25Y25*MOIN*%
%IR0*IPPOS*OFA0.00000B0.00000*MIA0B0*SFA1.00000B1.00000*%
%ADD11C,.044*%
%ADD10C,.075*%
%ADD12R,.075X.075*%
%LPD*%
G75*
G54D10*
X1230000Y850000D03*
Y900000D03*
Y930000D03*
Y980000D03*
Y1070000D03*
Y1120000D03*
Y1160000D03*
Y1210000D03*
X1250000Y700000D03*
Y710000D03*
Y740000D03*
Y730000D03*
Y770000D03*
Y820000D03*
X1260000Y850000D03*
Y900000D03*
Y930000D03*
Y980000D03*
Y1070000D03*
Y1120000D03*
Y1160000D03*
Y1210000D03*
X1250000Y1240000D03*
X1240000D03*
X1280000Y700000D03*
Y710000D03*
Y740000D03*
Y730000D03*
Y770000D03*
Y820000D03*
X1290000Y850000D03*
Y900000D03*
Y930000D03*
Y980000D03*
Y1070000D03*
Y1120000D03*
Y1160000D03*
Y1210000D03*
X1310000Y700000D03*
Y710000D03*
Y740000D03*
Y730000D03*
Y770000D03*
Y820000D03*
X1320000Y850000D03*
Y900000D03*
Y930000D03*
Y980000D03*
Y1070000D03*
Y1120000D03*
Y1150000D03*
Y1160000D03*
Y1170000D03*
Y1180000D03*
Y1190000D03*
Y1200000D03*
X1340000Y700000D03*
Y710000D03*
Y740000D03*
Y730000D03*
Y770000D03*
Y820000D03*
X1350000Y850000D03*
Y900000D03*
Y930000D03*
Y980000D03*
Y1070000D03*
Y1120000D03*
Y1150000D03*
Y1160000D03*
Y1170000D03*
Y1180000D03*
Y1190000D03*
Y1200000D03*
Y1210000D03*
X1370000Y700000D03*
Y710000D03*
Y740000D03*
Y730000D03*
Y770000D03*
Y820000D03*
X1380000Y850000D03*
Y900000D03*
Y930000D03*
Y980000D03*
X1400000Y700000D03*
Y710000D03*
Y740000D03*
Y730000D03*
Y770000D03*
Y820000D03*
X1410000Y850000D03*
Y900000D03*
Y930000D03*
Y980000D03*
X1390000Y1050000D03*
Y1060000D03*
Y1070000D03*
Y1080000D03*
Y1090000D03*
Y1100000D03*
Y1150000D03*
Y1160000D03*
Y1170000D03*
Y1180000D03*
Y1190000D03*
Y1200000D03*
X1430000Y700000D03*
Y710000D03*
Y740000D03*
Y730000D03*
Y770000D03*
Y820000D03*
X1440000Y850000D03*
Y900000D03*
Y930000D03*
Y980000D03*
X1420000Y1050000D03*
Y1060000D03*
Y1070000D03*
Y1080000D03*
Y1090000D03*
Y1100000D03*
Y1110000D03*
Y1150000D03*
Y1160000D03*
Y1170000D03*
Y1180000D03*
Y1190000D03*
Y1200000D03*
Y1210000D03*
X1460000Y700000D03*
Y710000D03*
Y740000D03*
Y730000D03*
Y770000D03*
Y820000D03*
X1470000Y880000D03*
Y890000D03*
Y900000D03*
Y910000D03*
Y920000D03*
Y930000D03*
Y940000D03*
X1460000Y1050000D03*
Y1060000D03*
Y1070000D03*
Y1080000D03*
Y1090000D03*
Y1100000D03*
Y1150000D03*
Y1160000D03*
Y1170000D03*
Y1180000D03*
Y1190000D03*
Y1200000D03*
X1500000Y720000D03*
Y750000D03*
Y770000D03*
Y800000D03*
Y900000D03*
Y890000D03*
Y880000D03*
Y930000D03*
Y920000D03*
Y910000D03*
Y950000D03*
Y940000D03*
Y980000D03*
Y1030000D03*
X1490000Y1050000D03*
Y1060000D03*
Y1070000D03*
Y1080000D03*
Y1090000D03*
Y1100000D03*
Y1110000D03*
Y1150000D03*
Y1160000D03*
Y1170000D03*
Y1180000D03*
Y1190000D03*
Y1200000D03*
Y1210000D03*
X1530000Y720000D03*
X1520000D03*
X1510000D03*
Y750000D03*
X1520000D03*
X1530000D03*
Y770000D03*
X1520000D03*
X1510000D03*
Y800000D03*
X1520000D03*
X1530000D03*
Y880000D03*
Y890000D03*
Y900000D03*
Y910000D03*
Y920000D03*
Y930000D03*
Y940000D03*
Y980000D03*
Y1030000D03*
Y1050000D03*
Y1060000D03*
Y1070000D03*
Y1080000D03*
Y1090000D03*
Y1100000D03*
Y1150000D03*
Y1160000D03*
Y1170000D03*
Y1180000D03*
Y1190000D03*
Y1200000D03*
X1560000Y720000D03*
X1550000D03*
X1540000D03*
Y750000D03*
X1550000D03*
X1560000D03*
Y770000D03*
X1550000D03*
X1540000D03*
Y800000D03*
X1550000D03*
X1560000D03*
Y900000D03*
Y890000D03*
Y880000D03*
Y930000D03*
Y920000D03*
Y910000D03*
Y950000D03*
Y940000D03*
Y980000D03*
Y1030000D03*
Y1050000D03*
Y1060000D03*
Y1070000D03*
Y1080000D03*
Y1090000D03*
Y1100000D03*
Y1110000D03*
Y1150000D03*
Y1160000D03*
Y1170000D03*
Y1180000D03*
Y1190000D03*
Y1200000D03*
Y1210000D03*
X1570000Y720000D03*
Y770000D03*
X1590000Y880000D03*
Y890000D03*
Y900000D03*
Y910000D03*
Y920000D03*
Y930000D03*
Y940000D03*
Y980000D03*
Y1030000D03*
X1620000Y690000D03*
Y700000D03*
Y720000D03*
Y750000D03*
X1610000D03*
X1600000Y780000D03*
X1620000D03*
X1600000Y830000D03*
X1620000D03*
Y900000D03*
Y890000D03*
Y880000D03*
Y930000D03*
Y920000D03*
Y910000D03*
Y950000D03*
Y940000D03*
Y980000D03*
Y1030000D03*
X1600000Y1050000D03*
Y1060000D03*
Y1070000D03*
Y1080000D03*
Y1090000D03*
Y1100000D03*
Y1150000D03*
Y1160000D03*
Y1170000D03*
Y1180000D03*
Y1190000D03*
Y1200000D03*
X1650000Y690000D03*
Y700000D03*
X1640000Y720000D03*
X1630000D03*
X1640000Y750000D03*
X1630000D03*
X1640000Y780000D03*
Y830000D03*
X1650000Y980000D03*
Y1030000D03*
X1630000Y1050000D03*
Y1060000D03*
Y1070000D03*
Y1080000D03*
Y1090000D03*
Y1100000D03*
Y1110000D03*
Y1150000D03*
Y1160000D03*
Y1170000D03*
Y1180000D03*
Y1190000D03*
Y1200000D03*
Y1210000D03*
X1680000Y690000D03*
Y700000D03*
X1660000Y780000D03*
Y830000D03*
Y880000D03*
Y890000D03*
Y900000D03*
Y910000D03*
Y920000D03*
Y930000D03*
Y940000D03*
X1680000Y980000D03*
Y1030000D03*
X1670000Y1050000D03*
Y1060000D03*
Y1070000D03*
Y1080000D03*
Y1090000D03*
Y1100000D03*
Y1150000D03*
Y1160000D03*
Y1170000D03*
Y1180000D03*
Y1190000D03*
Y1200000D03*
X1690000Y900000D03*
Y890000D03*
Y880000D03*
Y930000D03*
Y920000D03*
Y910000D03*
Y950000D03*
Y940000D03*
X1710000Y980000D03*
Y1030000D03*
X1700000Y1050000D03*
Y1060000D03*
Y1070000D03*
Y1080000D03*
Y1090000D03*
Y1100000D03*
Y1110000D03*
Y1150000D03*
Y1160000D03*
Y1170000D03*
Y1180000D03*
Y1190000D03*
Y1200000D03*
Y1210000D03*
X1720000Y690000D03*
Y700000D03*
X1740000Y870000D03*
Y880000D03*
Y890000D03*
Y900000D03*
Y910000D03*
Y920000D03*
Y980000D03*
Y1030000D03*
Y1050000D03*
Y1060000D03*
Y1070000D03*
Y1080000D03*
Y1090000D03*
Y1100000D03*
Y1150000D03*
Y1160000D03*
Y1170000D03*
Y1180000D03*
Y1190000D03*
Y1200000D03*
X1730000Y1240000D03*
X1720000D03*
X1750000Y690000D03*
Y700000D03*
X1770000Y870000D03*
Y880000D03*
Y890000D03*
Y900000D03*
Y910000D03*
Y920000D03*
Y930000D03*
Y1050000D03*
Y1060000D03*
Y1070000D03*
Y1080000D03*
Y1090000D03*
Y1100000D03*
Y1110000D03*
Y1150000D03*
Y1160000D03*
Y1170000D03*
Y1180000D03*
Y1190000D03*
Y1200000D03*
Y1210000D03*
X1780000Y690000D03*
Y700000D03*
Y750000D03*
Y760000D03*
X1810000Y690000D03*
Y700000D03*
Y870000D03*
Y880000D03*
Y890000D03*
Y900000D03*
Y910000D03*
Y920000D03*
Y1050000D03*
Y1060000D03*
Y1070000D03*
Y1080000D03*
Y1090000D03*
Y1100000D03*
Y1150000D03*
Y1160000D03*
Y1170000D03*
Y1180000D03*
Y1190000D03*
Y1200000D03*
X1840000Y690000D03*
Y700000D03*
Y750000D03*
Y760000D03*
Y870000D03*
Y880000D03*
Y890000D03*
Y900000D03*
Y910000D03*
Y920000D03*
Y930000D03*
Y1050000D03*
Y1060000D03*
Y1070000D03*
Y1080000D03*
Y1090000D03*
Y1100000D03*
Y1110000D03*
Y1150000D03*
Y1160000D03*
Y1170000D03*
Y1180000D03*
Y1190000D03*
Y1200000D03*
Y1210000D03*
X1870000Y690000D03*
Y700000D03*
X1880000Y870000D03*
Y880000D03*
Y890000D03*
Y900000D03*
Y910000D03*
Y920000D03*
Y1050000D03*
Y1060000D03*
Y1070000D03*
Y1080000D03*
Y1090000D03*
Y1100000D03*
Y1150000D03*
Y1160000D03*
Y1170000D03*
Y1180000D03*
Y1190000D03*
Y1200000D03*
X1900000Y690000D03*
Y700000D03*
Y750000D03*
Y760000D03*
X1910000Y870000D03*
Y880000D03*
Y890000D03*
Y900000D03*
Y910000D03*
Y920000D03*
Y930000D03*
Y1050000D03*
Y1060000D03*
Y1070000D03*
Y1080000D03*
Y1090000D03*
Y1100000D03*
Y1110000D03*
Y1150000D03*
Y1160000D03*
Y1170000D03*
Y1180000D03*
Y1190000D03*
Y1200000D03*
Y1210000D03*
X1930000Y690000D03*
Y700000D03*
G54D11*
X1275350Y1194500D03*
X1297500Y722500D03*
X1310000Y1165500D03*
X1337500Y972500D03*
X1377500Y1055000D03*
X1358500Y1085200D03*
X1369350Y1184500D03*
X1410000Y910000D03*
X1404350Y957850D03*
X1401500Y963550D03*
X1383500Y1135500D03*
X1391650Y1121584D03*
X1415500Y785200D03*
X1430650Y925500D03*
X1439500Y1130500D03*
X1415500Y1122200D03*
X1430650Y1118350D03*
X1455500Y838650D03*
X1449200Y861350D03*
X1458950Y914500D03*
Y970350D03*
X1468500Y1008800D03*
X1449200Y1039100D03*
X1450000Y1094500D03*
X1442500Y1107500D03*
X1460000Y1127200D03*
X1484900Y756799D03*
X1481200Y778500D03*
X1500000Y785200D03*
X1490000Y917500D03*
X1495500Y1020800D03*
X1484600Y1025500D03*
X1481750Y1042650D03*
X1475350Y1045500D03*
Y1065349D03*
X1500000Y1197500D03*
X1485500Y1218350D03*
X1511500Y843500D03*
X1521800Y920000D03*
X1518450Y924500D03*
X1505200Y995100D03*
X1518450Y1016250D03*
X1527500Y1040000D03*
X1520350Y1039100D03*
X1505350Y1084500D03*
X1507350Y1150350D03*
X1519050D03*
X1513350Y1195500D03*
X1548350Y900000D03*
X1534500Y960700D03*
X1554050Y987500D03*
X1534500D03*
X1548350Y1008800D03*
X1545500Y1019800D03*
X1541170Y1030000D03*
X1540000Y1100000D03*
X1544200Y1155500D03*
X1540000Y1190000D03*
X1582501Y1022650D03*
X1575200Y1037350D03*
X1567500Y1025500D03*
X1570350Y1042650D03*
X1582501Y1060000D03*
X1572350Y1111650D03*
X1578550Y1119500D03*
X1572350Y1122200D03*
X1614500Y739350D03*
X1615500Y806850D03*
X1620000Y841900D03*
X1594500Y847150D03*
X1595000Y972500D03*
X1620000Y1013400D03*
X1602501Y1034500D03*
X1612200Y1037350D03*
X1607500Y1054500D03*
X1609350Y1094500D03*
X1620000Y1112500D03*
X1611350Y1165000D03*
X1620000Y1155000D03*
X1645250Y850000D03*
X1642400Y955000D03*
X1650350Y940000D03*
X1632500Y987500D03*
X1637500Y980000D03*
X1625500Y991051D03*
X1642200Y1016250D03*
X1625500Y1037500D03*
X1639925Y1112575D03*
X1651650Y1146217D03*
X1669900Y770000D03*
X1667050Y1016950D03*
X1664500Y1003901D03*
X1674500Y1045200D03*
X1681350Y1090000D03*
X1677350Y1084500D03*
X1662500Y1143200D03*
X1694500Y960700D03*
X1702500Y945000D03*
X1687500Y975500D03*
X1700000Y985351D03*
X1684500Y1019800D03*
X1710000Y1045200D03*
X1686500Y1054500D03*
X1706500Y1140350D03*
X1693650Y1127200D03*
X1691201Y1180000D03*
X1727350Y745500D03*
X1735500Y764500D03*
X1724500Y780000D03*
X1732101Y859400D03*
X1732550Y967500D03*
X1740000Y1042350D03*
X1714500Y1022650D03*
X1717350Y1084500D03*
X1735350Y1138350D03*
X1720000Y1155000D03*
X1714500Y1165500D03*
X1729350Y1218500D03*
X1752500Y872500D03*
X1760001Y957850D03*
X1764651Y963550D03*
X1753151Y1080000D03*
X1758001Y1084500D03*
X1760851Y1130500D03*
X1750000Y1184500D03*
X1753151Y1221350D03*
X1790000Y907500D03*
X1778500Y1013400D03*
X1794100Y1105500D03*
X1800000Y1160000D03*
X1810000Y835550D03*
X1827350Y894500D03*
X1803800Y1016950D03*
X1817500Y1140000D03*
X1852500Y862500D03*
X1880000Y835550D03*
X1875500Y841900D03*
X1870000Y852800D03*
X1885650Y1025500D03*
X1863350Y1105350D03*
X1890500Y1164500D03*
X1868800Y1175000D03*
X1896800Y1133350D03*
G54D12*
X1320000Y1210000D03*
X1390000Y1110000D03*
Y1210000D03*
X1470000Y950000D03*
X1460000Y1110000D03*
Y1210000D03*
X1530000Y950000D03*
Y1110000D03*
Y1210000D03*
X1570000Y750000D03*
Y800000D03*
X1590000Y950000D03*
X1610000Y720000D03*
X1600000Y1110000D03*
Y1210000D03*
X1660000Y950000D03*
X1670000Y1110000D03*
Y1210000D03*
X1740000Y930000D03*
Y1110000D03*
Y1210000D03*
X1810000Y930000D03*
Y1110000D03*
Y1210000D03*
X1880000Y930000D03*
Y1110000D03*
Y1210000D03*
M02*
