G04 ================== begin FILE IDENTIFICATION RECORD ==================*
G04 Layout Name:  C:/Users/jbayert/Documents/GitHub/ECE424_PCBs/allegro/PCB_ASSIGN2.brd*
G04 Film Name:    BOTTOM*
G04 File Format:  Gerber RS274X*
G04 File Origin:  Cadence Allegro 17.2-P019*
G04 Origin Date:  Sat Sep 26 19:07:52 2020*
G04 *
G04 Layer:  ETCH/BOTTOM*
G04 Layer:  PIN/BOTTOM*
G04 Layer:  VIA CLASS/BOTTOM*
G04 *
G04 Offset:    (0.00 0.00)*
G04 Mirror:    No*
G04 Mode:      Positive*
G04 Rotation:  0*
G04 FullContactRelief:  No*
G04 UndefLineWidth:     0.00*
G04 ================== end FILE IDENTIFICATION RECORD ====================*
%FSLAX25Y25*MOIN*%
%IR0*IPPOS*OFA0.00000B0.00000*MIA0B0*SFA1.00000B1.00000*%
%ADD10C,.06*%
%ADD11C,.027*%
%ADD12R,.06X.06*%
%ADD13C,.01*%
%ADD14C,.02*%
G75*
%LPD*%
G75*
G54D10*
X1230000Y850000D03*
Y900000D03*
Y930000D03*
Y980000D03*
Y1070000D03*
Y1120000D03*
Y1160000D03*
Y1210000D03*
X1250000Y700000D03*
Y710000D03*
Y740000D03*
Y730000D03*
Y770000D03*
Y820000D03*
X1260000Y850000D03*
Y900000D03*
Y930000D03*
Y980000D03*
Y1070000D03*
Y1120000D03*
Y1160000D03*
Y1210000D03*
X1250000Y1240000D03*
X1240000D03*
X1280000Y700000D03*
Y710000D03*
Y740000D03*
Y730000D03*
Y770000D03*
Y820000D03*
X1290000Y850000D03*
Y900000D03*
Y930000D03*
Y980000D03*
Y1070000D03*
Y1120000D03*
Y1160000D03*
Y1210000D03*
X1310000Y700000D03*
Y710000D03*
Y740000D03*
Y730000D03*
Y770000D03*
Y820000D03*
X1320000Y850000D03*
Y900000D03*
Y930000D03*
Y980000D03*
Y1070000D03*
Y1120000D03*
Y1150000D03*
Y1160000D03*
Y1170000D03*
Y1180000D03*
Y1190000D03*
Y1200000D03*
X1340000Y700000D03*
Y710000D03*
Y740000D03*
Y730000D03*
Y770000D03*
Y820000D03*
X1350000Y850000D03*
Y900000D03*
Y930000D03*
Y980000D03*
Y1070000D03*
Y1120000D03*
Y1150000D03*
Y1160000D03*
Y1170000D03*
Y1180000D03*
Y1190000D03*
Y1200000D03*
Y1210000D03*
X1370000Y700000D03*
Y710000D03*
Y740000D03*
Y730000D03*
Y770000D03*
Y820000D03*
X1380000Y850000D03*
Y900000D03*
Y930000D03*
Y980000D03*
X1400000Y700000D03*
Y710000D03*
Y740000D03*
Y730000D03*
Y770000D03*
Y820000D03*
X1410000Y850000D03*
Y900000D03*
Y930000D03*
Y980000D03*
X1390000Y1050000D03*
Y1060000D03*
Y1070000D03*
Y1080000D03*
Y1090000D03*
Y1100000D03*
Y1150000D03*
Y1160000D03*
Y1170000D03*
Y1180000D03*
Y1190000D03*
Y1200000D03*
X1430000Y700000D03*
Y710000D03*
Y740000D03*
Y730000D03*
Y770000D03*
Y820000D03*
X1440000Y850000D03*
Y900000D03*
Y930000D03*
Y980000D03*
X1420000Y1050000D03*
Y1060000D03*
Y1070000D03*
Y1080000D03*
Y1090000D03*
Y1100000D03*
Y1110000D03*
Y1150000D03*
Y1160000D03*
Y1170000D03*
Y1180000D03*
Y1190000D03*
Y1200000D03*
Y1210000D03*
X1460000Y700000D03*
Y710000D03*
Y740000D03*
Y730000D03*
Y770000D03*
Y820000D03*
X1470000Y880000D03*
Y890000D03*
Y900000D03*
Y910000D03*
Y920000D03*
Y930000D03*
Y940000D03*
X1460000Y1050000D03*
Y1060000D03*
Y1070000D03*
Y1080000D03*
Y1090000D03*
Y1100000D03*
Y1150000D03*
Y1160000D03*
Y1170000D03*
Y1180000D03*
Y1190000D03*
Y1200000D03*
X1500000Y720000D03*
Y750000D03*
Y770000D03*
Y800000D03*
Y900000D03*
Y890000D03*
Y880000D03*
Y930000D03*
Y920000D03*
Y910000D03*
Y950000D03*
Y940000D03*
Y980000D03*
Y1030000D03*
X1490000Y1050000D03*
Y1060000D03*
Y1070000D03*
Y1080000D03*
Y1090000D03*
Y1100000D03*
Y1110000D03*
Y1150000D03*
Y1160000D03*
Y1170000D03*
Y1180000D03*
Y1190000D03*
Y1200000D03*
Y1210000D03*
X1530000Y720000D03*
X1520000D03*
X1510000D03*
Y750000D03*
X1520000D03*
X1530000D03*
Y770000D03*
X1520000D03*
X1510000D03*
Y800000D03*
X1520000D03*
X1530000D03*
Y880000D03*
Y890000D03*
Y900000D03*
Y910000D03*
Y920000D03*
Y930000D03*
Y940000D03*
Y980000D03*
Y1030000D03*
Y1050000D03*
Y1060000D03*
Y1070000D03*
Y1080000D03*
Y1090000D03*
Y1100000D03*
Y1150000D03*
Y1160000D03*
Y1170000D03*
Y1180000D03*
Y1190000D03*
Y1200000D03*
X1560000Y720000D03*
X1550000D03*
X1540000D03*
Y750000D03*
X1550000D03*
X1560000D03*
Y770000D03*
X1550000D03*
X1540000D03*
Y800000D03*
X1550000D03*
X1560000D03*
Y900000D03*
Y890000D03*
Y880000D03*
Y930000D03*
Y920000D03*
Y910000D03*
Y950000D03*
Y940000D03*
Y980000D03*
Y1030000D03*
Y1050000D03*
Y1060000D03*
Y1070000D03*
Y1080000D03*
Y1090000D03*
Y1100000D03*
Y1110000D03*
Y1150000D03*
Y1160000D03*
Y1170000D03*
Y1180000D03*
Y1190000D03*
Y1200000D03*
Y1210000D03*
X1570000Y720000D03*
Y770000D03*
X1590000Y880000D03*
Y890000D03*
Y900000D03*
Y910000D03*
Y920000D03*
Y930000D03*
Y940000D03*
Y980000D03*
Y1030000D03*
X1620000Y690000D03*
Y700000D03*
Y720000D03*
Y750000D03*
X1610000D03*
X1600000Y780000D03*
X1620000D03*
X1600000Y830000D03*
X1620000D03*
Y900000D03*
Y890000D03*
Y880000D03*
Y930000D03*
Y920000D03*
Y910000D03*
Y950000D03*
Y940000D03*
Y980000D03*
Y1030000D03*
X1600000Y1050000D03*
Y1060000D03*
Y1070000D03*
Y1080000D03*
Y1090000D03*
Y1100000D03*
Y1150000D03*
Y1160000D03*
Y1170000D03*
Y1180000D03*
Y1190000D03*
Y1200000D03*
X1650000Y690000D03*
Y700000D03*
X1640000Y720000D03*
X1630000D03*
X1640000Y750000D03*
X1630000D03*
X1640000Y780000D03*
Y830000D03*
X1650000Y980000D03*
Y1030000D03*
X1630000Y1050000D03*
Y1060000D03*
Y1070000D03*
Y1080000D03*
Y1090000D03*
Y1100000D03*
Y1110000D03*
Y1150000D03*
Y1160000D03*
Y1170000D03*
Y1180000D03*
Y1190000D03*
Y1200000D03*
Y1210000D03*
X1680000Y690000D03*
Y700000D03*
X1660000Y780000D03*
Y830000D03*
Y880000D03*
Y890000D03*
Y900000D03*
Y910000D03*
Y920000D03*
Y930000D03*
Y940000D03*
X1680000Y980000D03*
Y1030000D03*
X1670000Y1050000D03*
Y1060000D03*
Y1070000D03*
Y1080000D03*
Y1090000D03*
Y1100000D03*
Y1150000D03*
Y1160000D03*
Y1170000D03*
Y1180000D03*
Y1190000D03*
Y1200000D03*
X1690000Y900000D03*
Y890000D03*
Y880000D03*
Y930000D03*
Y920000D03*
Y910000D03*
Y950000D03*
Y940000D03*
X1710000Y980000D03*
Y1030000D03*
X1700000Y1050000D03*
Y1060000D03*
Y1070000D03*
Y1080000D03*
Y1090000D03*
Y1100000D03*
Y1110000D03*
Y1150000D03*
Y1160000D03*
Y1170000D03*
Y1180000D03*
Y1190000D03*
Y1200000D03*
Y1210000D03*
X1720000Y690000D03*
Y700000D03*
X1740000Y870000D03*
Y880000D03*
Y890000D03*
Y900000D03*
Y910000D03*
Y920000D03*
Y980000D03*
Y1030000D03*
Y1050000D03*
Y1060000D03*
Y1070000D03*
Y1080000D03*
Y1090000D03*
Y1100000D03*
Y1150000D03*
Y1160000D03*
Y1170000D03*
Y1180000D03*
Y1190000D03*
Y1200000D03*
X1730000Y1240000D03*
X1720000D03*
X1750000Y690000D03*
Y700000D03*
X1770000Y870000D03*
Y880000D03*
Y890000D03*
Y900000D03*
Y910000D03*
Y920000D03*
Y930000D03*
Y1050000D03*
Y1060000D03*
Y1070000D03*
Y1080000D03*
Y1090000D03*
Y1100000D03*
Y1110000D03*
Y1150000D03*
Y1160000D03*
Y1170000D03*
Y1180000D03*
Y1190000D03*
Y1200000D03*
Y1210000D03*
X1780000Y690000D03*
Y700000D03*
Y750000D03*
Y760000D03*
X1810000Y690000D03*
Y700000D03*
Y870000D03*
Y880000D03*
Y890000D03*
Y900000D03*
Y910000D03*
Y920000D03*
Y1050000D03*
Y1060000D03*
Y1070000D03*
Y1080000D03*
Y1090000D03*
Y1100000D03*
Y1150000D03*
Y1160000D03*
Y1170000D03*
Y1180000D03*
Y1190000D03*
Y1200000D03*
X1840000Y690000D03*
Y700000D03*
Y750000D03*
Y760000D03*
Y870000D03*
Y880000D03*
Y890000D03*
Y900000D03*
Y910000D03*
Y920000D03*
Y930000D03*
Y1050000D03*
Y1060000D03*
Y1070000D03*
Y1080000D03*
Y1090000D03*
Y1100000D03*
Y1110000D03*
Y1150000D03*
Y1160000D03*
Y1170000D03*
Y1180000D03*
Y1190000D03*
Y1200000D03*
Y1210000D03*
X1870000Y690000D03*
Y700000D03*
X1880000Y870000D03*
Y880000D03*
Y890000D03*
Y900000D03*
Y910000D03*
Y920000D03*
Y1050000D03*
Y1060000D03*
Y1070000D03*
Y1080000D03*
Y1090000D03*
Y1100000D03*
Y1150000D03*
Y1160000D03*
Y1170000D03*
Y1180000D03*
Y1190000D03*
Y1200000D03*
X1900000Y690000D03*
Y700000D03*
Y750000D03*
Y760000D03*
X1910000Y870000D03*
Y880000D03*
Y890000D03*
Y900000D03*
Y910000D03*
Y920000D03*
Y930000D03*
Y1050000D03*
Y1060000D03*
Y1070000D03*
Y1080000D03*
Y1090000D03*
Y1100000D03*
Y1110000D03*
Y1150000D03*
Y1160000D03*
Y1170000D03*
Y1180000D03*
Y1190000D03*
Y1200000D03*
Y1210000D03*
X1930000Y690000D03*
Y700000D03*
G54D11*
X1275350Y1194500D03*
X1297500Y722500D03*
X1310000Y1165500D03*
X1337500Y972500D03*
X1377500Y1055000D03*
X1358500Y1085200D03*
X1369350Y1184500D03*
X1410000Y910000D03*
X1404350Y957850D03*
X1401500Y963550D03*
X1383500Y1135500D03*
X1391650Y1121584D03*
X1415500Y785200D03*
X1430650Y925500D03*
X1439500Y1130500D03*
X1415500Y1122200D03*
X1430650Y1118350D03*
X1455500Y838650D03*
X1449200Y861350D03*
X1458950Y914500D03*
Y970350D03*
X1468500Y1008800D03*
X1449200Y1039100D03*
X1450000Y1094500D03*
X1442500Y1107500D03*
X1460000Y1127200D03*
X1484900Y756799D03*
X1481200Y778500D03*
X1500000Y785200D03*
X1490000Y917500D03*
X1495500Y1020800D03*
X1484600Y1025500D03*
X1481750Y1042650D03*
X1475350Y1045500D03*
Y1065349D03*
X1500000Y1197500D03*
X1485500Y1218350D03*
X1511500Y843500D03*
X1521800Y920000D03*
X1518450Y924500D03*
X1505200Y995100D03*
X1518450Y1016250D03*
X1527500Y1040000D03*
X1520350Y1039100D03*
X1505350Y1084500D03*
X1507350Y1150350D03*
X1519050D03*
X1513350Y1195500D03*
X1548350Y900000D03*
X1534500Y960700D03*
X1554050Y987500D03*
X1534500D03*
X1548350Y1008800D03*
X1545500Y1019800D03*
X1541170Y1030000D03*
X1540000Y1100000D03*
X1544200Y1155500D03*
X1540000Y1190000D03*
X1582501Y1022650D03*
X1575200Y1037350D03*
X1567500Y1025500D03*
X1570350Y1042650D03*
X1582501Y1060000D03*
X1572350Y1111650D03*
X1578550Y1119500D03*
X1572350Y1122200D03*
X1614500Y739350D03*
X1615500Y806850D03*
X1620000Y841900D03*
X1594500Y847150D03*
X1595000Y972500D03*
X1620000Y1013400D03*
X1602501Y1034500D03*
X1612200Y1037350D03*
X1607500Y1054500D03*
X1609350Y1094500D03*
X1620000Y1112500D03*
X1611350Y1165000D03*
X1620000Y1155000D03*
X1645250Y850000D03*
X1642400Y955000D03*
X1650350Y940000D03*
X1632500Y987500D03*
X1637500Y980000D03*
X1625500Y991051D03*
X1642200Y1016250D03*
X1625500Y1037500D03*
X1639925Y1112575D03*
X1651650Y1146217D03*
X1669900Y770000D03*
X1667050Y1016950D03*
X1664500Y1003901D03*
X1674500Y1045200D03*
X1681350Y1090000D03*
X1677350Y1084500D03*
X1662500Y1143200D03*
X1694500Y960700D03*
X1702500Y945000D03*
X1687500Y975500D03*
X1700000Y985351D03*
X1684500Y1019800D03*
X1710000Y1045200D03*
X1686500Y1054500D03*
X1706500Y1140350D03*
X1693650Y1127200D03*
X1691201Y1180000D03*
X1727350Y745500D03*
X1735500Y764500D03*
X1724500Y780000D03*
X1732101Y859400D03*
X1732550Y967500D03*
X1740000Y1042350D03*
X1714500Y1022650D03*
X1717350Y1084500D03*
X1735350Y1138350D03*
X1720000Y1155000D03*
X1714500Y1165500D03*
X1729350Y1218500D03*
X1752500Y872500D03*
X1760001Y957850D03*
X1764651Y963550D03*
X1753151Y1080000D03*
X1758001Y1084500D03*
X1760851Y1130500D03*
X1750000Y1184500D03*
X1753151Y1221350D03*
X1790000Y907500D03*
X1778500Y1013400D03*
X1794100Y1105500D03*
X1800000Y1160000D03*
X1810000Y835550D03*
X1827350Y894500D03*
X1803800Y1016950D03*
X1817500Y1140000D03*
X1852500Y862500D03*
X1880000Y835550D03*
X1875500Y841900D03*
X1870000Y852800D03*
X1885650Y1025500D03*
X1863350Y1105350D03*
X1890500Y1164500D03*
X1868800Y1175000D03*
X1896800Y1133350D03*
G54D12*
X1320000Y1210000D03*
X1390000Y1110000D03*
Y1210000D03*
X1470000Y950000D03*
X1460000Y1110000D03*
Y1210000D03*
X1530000Y950000D03*
Y1110000D03*
Y1210000D03*
X1570000Y750000D03*
Y800000D03*
X1590000Y950000D03*
X1610000Y720000D03*
X1600000Y1110000D03*
Y1210000D03*
X1660000Y950000D03*
X1670000Y1110000D03*
Y1210000D03*
X1740000Y930000D03*
Y1110000D03*
Y1210000D03*
X1810000Y930000D03*
Y1110000D03*
Y1210000D03*
X1880000Y930000D03*
Y1110000D03*
Y1210000D03*
G54D13*
G01X1260000Y850000D02*
Y720000D01*
X1280000Y700000D01*
G01X1250000Y740000D02*
Y770000D01*
G01X1260000Y930000D02*
X1275350Y945350D01*
Y1194500D01*
G01X1280000Y740000D02*
Y770000D01*
G01D02*
X1284500Y774500D01*
Y883000D01*
X1328500Y927000D01*
Y1201500D01*
X1320000Y1210000D01*
G01X1302500Y850000D02*
X1290000D01*
G01X1340000Y700000D02*
X1320000Y720000D01*
Y850000D01*
G01X1297500Y722500D02*
X1304500Y715500D01*
Y705500D01*
X1310000Y700000D01*
G01Y740000D02*
Y770000D01*
G01X1302500Y850000D02*
X1304500Y848000D01*
Y729500D01*
X1297500Y722500D01*
G01X1302500Y850000D02*
Y867500D01*
X1384500Y949500D01*
Y1048000D01*
X1377500Y1055000D01*
G01X1320000Y930000D02*
X1324500Y934500D01*
Y1152000D01*
X1322000Y1154500D01*
X1319000D01*
X1315500Y1158000D01*
Y1160000D01*
X1310000Y1165500D01*
G01X1320000Y1160000D02*
X1324500Y1164500D01*
Y1195500D01*
X1320000Y1200000D01*
G01X1310000Y1165500D02*
X1315500Y1171000D01*
Y1175500D01*
X1320000Y1180000D01*
G01X1370000Y700000D02*
X1350000Y720000D01*
Y850000D01*
G01X1340000Y740000D02*
Y770000D01*
G01X1337500Y972500D02*
X1345500Y980500D01*
Y1097550D01*
X1354500Y1106550D01*
Y1145500D01*
X1350000Y1150000D01*
G01Y1070000D02*
X1369350Y1089350D01*
Y1184500D01*
G01X1358500Y1085200D02*
Y1161500D01*
X1350000Y1170000D01*
G01Y1180000D02*
Y1170000D01*
G01Y1200000D02*
X1355500Y1194500D01*
X1408100D01*
X1412600Y1190000D01*
X1420000D01*
G01X1400000Y700000D02*
X1380000Y720000D01*
Y850000D01*
G01X1540000Y720000D02*
X1535500Y724500D01*
X1494000D01*
X1461000Y691500D01*
X1378500D01*
X1370000Y700000D01*
G01Y770000D02*
Y740000D01*
G01X1377500Y1055000D02*
X1384500Y1062000D01*
Y1104500D01*
X1390000Y1110000D01*
G01X1410000Y850000D02*
Y720000D01*
X1430000Y700000D01*
G01X1550000Y720000D02*
X1541500Y728500D01*
X1495000D01*
X1462000Y695500D01*
X1404500D01*
X1400000Y700000D01*
G01Y770000D02*
Y740000D01*
G01X1410000Y930000D02*
Y910000D01*
G01X1390000Y1190000D02*
X1404350Y1175650D01*
Y957850D01*
G01X1390000Y1160000D02*
X1401500Y1148500D01*
Y963550D01*
G01X1391650Y1121584D02*
X1394500Y1118734D01*
Y1094500D01*
X1390000Y1090000D01*
G01X1383500Y1135500D02*
Y1173500D01*
X1390000Y1180000D01*
G01X1440000Y850000D02*
Y720000D01*
X1460000Y700000D01*
G01X1430000Y770000D02*
Y740000D01*
G01X1415500Y1122200D02*
Y785200D01*
G01X1430650Y1118350D02*
Y925500D01*
G01X1439500Y1130500D02*
Y1180500D01*
X1420000Y1200000D01*
G01Y1160000D02*
X1415500Y1155500D01*
Y1122200D01*
G01X1420000Y1150000D02*
X1426500Y1156500D01*
Y1190000D01*
X1422000Y1194500D01*
X1419000D01*
X1415500Y1198000D01*
Y1202000D01*
X1418000Y1204500D01*
X1454500D01*
X1460000Y1210000D01*
G01Y770000D02*
Y740000D01*
G01X1455500Y1070000D02*
Y838650D01*
G01X1449200Y1039100D02*
Y861350D01*
G01X1470000Y900000D02*
X1474500Y904500D01*
Y922000D01*
X1472000Y924500D01*
X1469000D01*
X1465500Y928000D01*
Y975575D01*
X1475350Y985425D01*
Y1045500D01*
G01X1470000Y910000D02*
X1463500Y916500D01*
Y1029501D01*
X1464500Y1030501D01*
Y1055500D01*
X1460000Y1060000D01*
G01X1458950Y970350D02*
Y914500D01*
G01X1460000Y1090000D02*
X1468500Y1081500D01*
Y1008800D01*
G01X1449200Y1039100D02*
Y1091269D01*
X1447150Y1093319D01*
Y1095681D01*
X1448819Y1097350D01*
X1452800D01*
X1455450Y1100000D01*
X1460000D01*
G01Y1070000D02*
X1455500D01*
G01X1450000Y1094500D02*
X1455500Y1089000D01*
Y1070000D01*
G01X1460000Y1127200D02*
Y1110000D01*
G01X1442500Y1107500D02*
X1450351D01*
X1451351Y1108500D01*
Y1148000D01*
X1457851Y1154500D01*
X1514850D01*
X1519350Y1159000D01*
Y1159350D01*
X1530000Y1170000D01*
G01X1460000Y1160000D02*
X1464500Y1164500D01*
X1491350D01*
X1513350Y1186500D01*
Y1195500D01*
G01X1460000Y1180000D02*
X1484500Y1204500D01*
X1537700D01*
X1556700Y1185500D01*
X1576250D01*
X1580750Y1190000D01*
X1600000D01*
G01X1717350Y1084500D02*
Y746225D01*
X1724501Y739074D01*
Y698000D01*
X1722001Y695500D01*
X1524500D01*
X1500000Y720000D01*
G01X1560000Y1160000D02*
X1531050Y1131050D01*
X1531000D01*
X1500500Y1100550D01*
Y1041000D01*
X1495500Y1036000D01*
Y1025075D01*
X1498350Y1022225D01*
Y1009025D01*
X1495500Y1006175D01*
Y948000D01*
X1499000Y944500D01*
X1502000D01*
X1507500Y939000D01*
Y916531D01*
X1507850Y916181D01*
Y913819D01*
X1507500Y913469D01*
Y901000D01*
X1501000Y894500D01*
X1497900D01*
X1484900Y881500D01*
Y756799D01*
G01X1484600Y1025500D02*
X1481200Y1022100D01*
Y778500D01*
G01X1500000Y770000D02*
Y785200D01*
G01X1560000Y1080000D02*
X1553501Y1086499D01*
Y1095000D01*
X1534001Y1114500D01*
X1526000D01*
X1509500Y1098000D01*
Y917360D01*
X1509850Y917010D01*
Y912990D01*
X1509500Y912640D01*
Y899500D01*
X1500000Y890000D01*
G01X1490000Y1050000D02*
Y921531D01*
X1487150Y918681D01*
Y916319D01*
X1490000Y913469D01*
Y910000D01*
X1500000Y900000D01*
G01X1490000Y917500D02*
X1492500Y920000D01*
Y1020650D01*
X1492650Y1020800D01*
G01X1495500D02*
X1492650D01*
G01X1540000Y1190000D02*
X1537350Y1187350D01*
Y1145050D01*
X1527350Y1135050D01*
X1527000D01*
X1496500Y1104550D01*
Y1044425D01*
X1492650Y1040575D01*
Y1020800D01*
G01X1490000Y1060000D02*
X1484600Y1054600D01*
Y1025500D01*
G01X1490000Y1070000D02*
X1481750Y1061750D01*
Y1042650D01*
G01X1534500Y1160000D02*
Y1148050D01*
X1525500Y1139050D01*
X1512350D01*
X1475350Y1102050D01*
Y1065349D01*
G01X1500000Y1197500D02*
X1494500Y1192000D01*
Y1184500D01*
X1490000Y1180000D01*
G01X1485500Y1218350D02*
X1681850D01*
X1693350Y1206850D01*
Y1206650D01*
X1700000Y1200000D01*
G01X1530000Y1080000D02*
X1515500Y1065500D01*
Y768000D01*
X1518000Y765500D01*
X1535500D01*
X1540000Y770000D01*
G01X1530000D02*
X1536500Y776500D01*
X1540500D01*
X1544500Y772500D01*
Y769000D01*
X1548000Y765500D01*
X1552000D01*
X1554500Y768000D01*
Y838850D01*
X1551200Y842150D01*
Y1020350D01*
X1555500Y1024650D01*
G01X1511500Y843500D02*
Y911811D01*
X1511850Y912161D01*
Y917839D01*
X1511500Y918189D01*
Y1081500D01*
X1530000Y1100000D01*
G01Y1090000D02*
X1537350Y1082650D01*
Y907350D01*
X1530000Y900000D01*
G01X1518450Y1016250D02*
Y924500D01*
G01X1530000Y910000D02*
X1534500Y914500D01*
Y960700D01*
G01X1520350Y1039100D02*
Y1060350D01*
X1530000Y1070000D01*
G01X1534500Y987500D02*
Y1055500D01*
X1530000Y1060000D01*
G01X1560000Y1127050D02*
X1535350D01*
X1505350Y1097050D01*
Y1084500D01*
G01X1530000Y1110000D02*
X1535500D01*
X1545500Y1100000D01*
Y1019800D01*
G01X1530000Y1160000D02*
X1534500D01*
G01X1507350Y1150350D02*
X1519050D01*
G01X1530000Y1200000D02*
X1534500Y1195500D01*
Y1160000D01*
G01X1545500Y1019800D02*
Y788750D01*
X1550000Y784250D01*
Y770000D01*
G01X1554050Y987500D02*
Y895950D01*
X1560000Y890000D01*
G01X1548350Y900000D02*
Y1008800D01*
G01X1582501Y1022650D02*
Y1002501D01*
X1560000Y980000D01*
G01X1555500Y1024650D02*
X1557500Y1022650D01*
X1569050D01*
X1578550Y1032150D01*
Y1119500D01*
G01X1555500Y1024650D02*
Y1055500D01*
X1560000Y1060000D01*
G01Y1090000D02*
X1567500Y1082500D01*
Y1025500D01*
G01X1560000Y1100000D02*
X1570350Y1089650D01*
Y1042650D01*
G01X1560000Y1150000D02*
Y1127050D01*
G01X1575200Y1037350D02*
Y1123550D01*
X1571700Y1127050D01*
X1560000D01*
G01X1544200Y1155500D02*
Y1159000D01*
X1555200Y1170000D01*
X1560000D01*
G01Y1180000D02*
Y1170000D01*
G01Y1190000D02*
X1564500Y1194500D01*
X1604500D01*
G01X1590000Y890000D02*
X1594500Y885500D01*
Y847150D01*
G01X1590000Y900000D02*
X1602501Y912501D01*
Y1034500D01*
G01X1595000Y972500D02*
Y970150D01*
X1594500Y969650D01*
Y934500D01*
X1590000Y930000D01*
G01X1607500Y1054500D02*
X1604500Y1051500D01*
Y1043925D01*
X1599350Y1038775D01*
Y919350D01*
X1590000Y910000D01*
G01X1594500Y1090000D02*
Y984500D01*
X1590000Y980000D01*
G01X1582501Y1060000D02*
Y1022650D01*
G01X1572350Y1122200D02*
Y1111650D01*
G01X1620000Y700000D02*
X1614500Y705500D01*
Y728250D01*
X1610000Y732750D01*
Y750000D01*
G01X1609350Y1094500D02*
Y1059510D01*
X1612350Y1056510D01*
Y1052490D01*
X1609350Y1049490D01*
Y786575D01*
X1614500Y781425D01*
Y739350D01*
G01X1650000Y700000D02*
X1643500D01*
X1624500Y719000D01*
Y745500D01*
X1620000Y750000D01*
G01Y780000D02*
Y750000D01*
G01X1610000D02*
Y779350D01*
X1607350Y782000D01*
G01X1650350Y940000D02*
Y810001D01*
X1646350Y806001D01*
X1646001D01*
X1620000Y780000D01*
G01X1607350Y782000D02*
X1605350Y780000D01*
X1600000D01*
G01X1615500Y806850D02*
Y902000D01*
X1618000Y904500D01*
X1621000D01*
X1624500Y908000D01*
Y912000D01*
X1622000Y914500D01*
X1619000D01*
X1615500Y918000D01*
Y925500D01*
X1620000Y930000D01*
G01X1607350Y782000D02*
Y1050319D01*
X1610350Y1053319D01*
Y1055681D01*
X1608681Y1057350D01*
X1608350D01*
X1607350Y1058350D01*
Y1062650D01*
X1600000Y1070000D01*
G01X1620000Y880000D02*
Y841900D01*
G01X1637500Y980000D02*
X1632617Y975117D01*
Y912617D01*
X1620000Y900000D01*
G01Y910000D02*
X1612200Y917800D01*
Y1037350D01*
G01X1620000Y1013400D02*
Y980000D01*
G01X1600000Y1170000D02*
X1610550D01*
X1615050Y1165500D01*
Y1018350D01*
X1620000Y1013400D01*
G01X1600000Y1090000D02*
X1594500D01*
G01X1604500Y1194500D02*
Y1188000D01*
X1601000Y1184500D01*
X1598000D01*
X1591500Y1178000D01*
Y1093000D01*
X1594500Y1090000D01*
G01X1609350Y1094500D02*
Y1100650D01*
X1600000Y1110000D01*
G01Y1180000D02*
X1595500Y1175500D01*
Y1104500D01*
X1600000Y1100000D01*
G01X1620000Y1112500D02*
X1621662Y1110838D01*
X1622437D01*
X1627775Y1105500D01*
X1632850D01*
X1639925Y1112575D01*
G01X1620000Y1155000D02*
X1624651Y1159651D01*
Y1174651D01*
X1630000Y1180000D01*
G01Y1200000D02*
X1624500Y1194500D01*
X1604500D01*
G01X1670000Y1080000D02*
X1663500Y1086500D01*
Y1100000D01*
X1668000Y1104500D01*
X1673000D01*
X1676500Y1108000D01*
Y1200000D01*
X1672000Y1204500D01*
X1605500D01*
X1600000Y1210000D01*
G01X1680000Y700000D02*
Y704500D01*
X1650000Y734500D01*
X1645500D01*
X1630000Y750000D01*
G01D02*
Y770000D01*
X1640000Y780000D01*
G01Y750000D02*
X1660000Y770000D01*
Y780000D01*
G01X1645250Y850000D02*
Y948875D01*
X1660500Y964125D01*
Y1060500D01*
X1670000Y1070000D01*
G01X1632500Y987500D02*
X1630000Y990000D01*
Y1050000D01*
G01X1650000Y980000D02*
X1656500Y986500D01*
Y1146500D01*
X1670000Y1160000D01*
G01X1642200Y1016250D02*
Y1110819D01*
X1642775Y1111394D01*
Y1113756D01*
X1642200Y1114331D01*
Y1162200D01*
X1670000Y1190000D01*
G01X1625500Y1037500D02*
Y991051D01*
G01X1630000Y1080000D02*
X1625500Y1075500D01*
Y1037500D01*
G01X1630000Y1070000D02*
X1634500Y1074500D01*
Y1095500D01*
X1630000Y1100000D01*
G01X1669900Y770000D02*
Y1040600D01*
X1674500Y1045200D01*
G01X1660000Y900000D02*
X1667350Y907350D01*
Y1013800D01*
X1667050Y1014100D01*
Y1016950D01*
G01X1690000Y900000D02*
X1675500Y914500D01*
Y1039576D01*
X1677350Y1041426D01*
Y1077075D01*
X1674500Y1079925D01*
Y1085500D01*
X1670000Y1090000D01*
G01X1660000Y920000D02*
X1664500Y924500D01*
Y1003901D01*
G01X1680000Y980000D02*
X1689350Y989350D01*
Y1159350D01*
X1700000Y1170000D01*
G01X1674500Y1045200D02*
Y1072000D01*
X1672000Y1074500D01*
X1671000D01*
X1670000Y1075500D01*
Y1080000D01*
G01X1662500Y1143200D02*
X1670000Y1135700D01*
Y1110000D01*
G01Y1100000D02*
X1677350Y1092650D01*
Y1084500D01*
G01X1651650Y1146217D02*
Y1151650D01*
X1670000Y1170000D01*
G01Y1160000D02*
X1674500Y1164500D01*
Y1195500D01*
X1670000Y1200000D01*
G01Y1210000D02*
X1681350Y1198650D01*
Y1090000D01*
G01X1720000Y700000D02*
X1690000Y730000D01*
Y880000D01*
G01X1710000Y1045200D02*
X1705350Y1040550D01*
Y905350D01*
X1690000Y890000D01*
G01X1687500Y975500D02*
Y973000D01*
X1685350Y970850D01*
Y914650D01*
X1690000Y910000D01*
G01X1700000Y1150000D02*
Y1122675D01*
X1691650Y1114325D01*
Y977881D01*
X1692850Y976681D01*
Y974319D01*
X1691650Y973119D01*
Y959425D01*
X1697500Y953575D01*
Y950000D01*
X1702500Y945000D01*
G01X1694500Y960700D02*
Y973140D01*
X1694850Y973490D01*
Y977510D01*
X1694500Y977860D01*
Y1074500D01*
X1700000Y1080000D01*
G01Y1050000D02*
Y985351D01*
G01X1681350Y1090000D02*
Y1048076D01*
X1684500Y1044926D01*
Y1019800D01*
G01X1686500Y1054500D02*
Y1181000D01*
X1695500Y1190000D01*
X1700000D01*
G01X1706500Y1140350D02*
Y1066500D01*
X1700000Y1060000D01*
G01X1693650Y1127200D02*
Y1153650D01*
X1700000Y1160000D01*
G01Y1180000D02*
Y1170000D01*
G01X1691201Y1180000D02*
X1695701Y1184500D01*
X1702000D01*
X1714500Y1172000D01*
Y1165500D01*
G01X1770000Y1200000D02*
X1760001Y1209999D01*
Y1219000D01*
X1732501Y1246500D01*
X1720000D01*
X1709500Y1236000D01*
Y1195000D01*
X1704500Y1190000D01*
X1700000D01*
G01X1732101Y859400D02*
Y711500D01*
X1748101Y695500D01*
X1775500D01*
X1780000Y700000D01*
G01X1727350Y745500D02*
Y1097350D01*
X1740000Y1110000D01*
G01X1732550Y967500D02*
Y929000D01*
X1737050Y924500D01*
X1742000D01*
X1744500Y922000D01*
Y918000D01*
X1741000Y914500D01*
X1738000D01*
X1735500Y912000D01*
Y764500D01*
G01X1730000Y1240000D02*
X1724500Y1234500D01*
Y780000D01*
G01X1740000Y920000D02*
X1732101Y912101D01*
Y859400D01*
G01X1740000Y900000D02*
Y910000D01*
G01X1770000Y870000D02*
X1759650D01*
X1748650Y881000D01*
Y881350D01*
X1740000Y890000D01*
G01X1810000Y700000D02*
Y726500D01*
X1782000Y754500D01*
X1779000D01*
X1774500Y759000D01*
Y872000D01*
X1772000Y874500D01*
X1768650D01*
X1750650Y892500D01*
Y919350D01*
X1740000Y930000D01*
G01Y1060000D02*
X1732550Y1052550D01*
Y967500D01*
G01X1714500Y1165500D02*
Y1022650D01*
G01X1740000Y1070000D02*
X1746500D01*
G01X1740000Y1090000D02*
X1744500Y1094500D01*
Y1129200D01*
X1735350Y1138350D01*
G01X1740000Y1160000D02*
X1729350Y1170650D01*
Y1218500D01*
G01X1752500Y872500D02*
X1747650D01*
X1746650Y871500D01*
Y765326D01*
X1750000Y761976D01*
Y700000D01*
G01X1746500Y1070000D02*
X1752650Y1063850D01*
Y910500D01*
X1768650Y894500D01*
X1772000D01*
X1780000Y886500D01*
Y760000D01*
G01X1770000Y900000D02*
X1756001Y913999D01*
Y1077150D01*
X1753151Y1080000D01*
G01X1770000Y920000D02*
X1764651Y925349D01*
Y963550D01*
G01X1770000Y910000D02*
X1760001Y919999D01*
Y957850D01*
G01X1770000Y1050000D02*
X1760851Y1059149D01*
Y1130500D01*
G01X1758001Y1084500D02*
Y1052500D01*
X1767001Y1043500D01*
X1771000D01*
X1774500Y1047000D01*
Y1055500D01*
X1770000Y1060000D01*
G01X1750000Y1184500D02*
X1746500Y1181000D01*
Y1070000D01*
G01X1770000Y1080000D02*
X1778500Y1071500D01*
Y1013400D01*
G01X1753151Y1080000D02*
Y1221350D01*
G01X1770000Y1070000D02*
X1765500Y1074500D01*
Y1095500D01*
X1770000Y1100000D01*
G01X1810000Y1210000D02*
X1782500Y1182500D01*
Y1162500D01*
X1770000Y1150000D01*
G01X1790000Y907500D02*
X1798950Y916450D01*
Y1157019D01*
X1797150Y1158819D01*
Y1161181D01*
X1798950Y1162981D01*
Y1165500D01*
X1807950Y1174500D01*
X1834500D01*
X1840000Y1180000D01*
G01Y1200000D02*
X1834500Y1194500D01*
X1808100D01*
X1794100Y1180500D01*
Y1105500D01*
G01X1800000Y1160000D02*
X1805500Y1154500D01*
Y1114500D01*
X1810000Y1110000D01*
G01Y920000D02*
X1818500Y911500D01*
Y781500D01*
X1840000Y760000D01*
G01Y1080000D02*
X1827350Y1067350D01*
Y894500D01*
G01X1810000Y930000D02*
X1822500Y917500D01*
Y895000D01*
X1832000Y885500D01*
X1842000D01*
X1858500Y902000D01*
Y905000D01*
X1878000Y924500D01*
X1885500D01*
X1910000Y900000D01*
G01X1810000Y1090000D02*
X1803800Y1083800D01*
Y1016950D01*
G01X1817500Y1140000D02*
X1815350Y1137850D01*
Y1085350D01*
X1810000Y1080000D01*
G01X1880000Y1060000D02*
X1858500Y1081500D01*
Y1148000D01*
X1842000Y1164500D01*
X1815500D01*
X1810000Y1170000D01*
G01X1880000Y1090000D02*
X1871650Y1098350D01*
Y1176500D01*
X1863650Y1184500D01*
X1814500D01*
X1810000Y1180000D01*
G01X1852500Y862500D02*
X1844500Y854500D01*
Y704500D01*
X1840000Y700000D01*
G01Y1160000D02*
X1854500Y1145500D01*
Y1079000D01*
X1879000Y1054500D01*
X1905500D01*
X1910000Y1050000D01*
G01X1840000Y1170000D02*
X1863350Y1146650D01*
Y1105350D01*
G01X1870000Y700000D02*
Y852800D01*
G01X1875500Y841900D02*
Y724500D01*
X1900000Y700000D01*
G01X1880000Y920000D02*
X1875500Y915500D01*
Y841900D01*
G01X1910000Y880000D02*
X1905500D01*
X1890500Y895000D01*
Y899500D01*
X1880000Y910000D01*
G01X1914500Y1060000D02*
Y1048000D01*
X1892000Y1025500D01*
X1885650D01*
G01X1880000Y1080000D02*
X1868800Y1091200D01*
Y1175000D01*
G01X1880000Y1180000D02*
X1884500Y1175500D01*
Y1074500D01*
X1880000Y1070000D01*
G01X1875500Y1160000D02*
Y1104500D01*
X1880000Y1100000D01*
G01X1890500Y1164500D02*
Y1109500D01*
X1910000Y1090000D01*
G01X1880000Y1200000D02*
X1875500Y1195500D01*
Y1160000D01*
G01X1880000D02*
X1875500D01*
G01X1910000Y1200000D02*
X1890500Y1180500D01*
Y1164500D01*
G01X1910000Y870000D02*
X1916500Y876500D01*
Y903500D01*
X1910000Y910000D01*
G01Y1070000D02*
X1914500Y1074500D01*
Y1128001D01*
X1905500Y1137001D01*
Y1165500D01*
X1910000Y1170000D01*
G01Y1160000D02*
X1918500Y1151500D01*
Y1064000D01*
X1914500Y1060000D01*
G01X1910000D02*
X1914500D01*
G01X1910000Y1100000D02*
X1896800Y1113200D01*
Y1133350D01*
G01D02*
Y1176800D01*
X1910000Y1190000D01*
G54D14*
G01X1250000Y730000D02*
Y710000D01*
G01Y1240000D02*
X1281700Y1208300D01*
Y1182000D01*
X1313700Y1150000D01*
X1320000D01*
G01X1280000Y730000D02*
Y710000D01*
G01X1290000Y1210000D02*
X1295000Y1215000D01*
X1350000D01*
G01X1310000Y710000D02*
Y730000D01*
G01X1340000Y710000D02*
Y730000D01*
G01X1350000Y1120000D02*
X1345000Y1125000D01*
Y1205000D01*
X1350000Y1210000D01*
G01Y1215000D02*
X1420000D01*
G01X1350000D02*
Y1210000D01*
G01X1370000Y710000D02*
Y730000D01*
G01X1400000D02*
Y710000D01*
G01X1390000Y1050000D02*
X1397000Y1057000D01*
Y1143000D01*
X1390000Y1150000D01*
G01X1430000Y730000D02*
Y710000D01*
G01Y820000D02*
Y890000D01*
X1440000Y900000D01*
G01X1420000Y1215000D02*
X1490000D01*
G01X1420000Y1210000D02*
Y1215000D01*
G01X1460000Y710000D02*
Y730000D01*
G01X1475000Y930000D02*
X1478000Y927000D01*
Y888000D01*
X1470000Y880000D01*
G01X1475000Y930000D02*
X1470000D01*
G01Y950000D02*
X1475000Y945000D01*
Y930000D01*
G01X1530000Y1150000D02*
X1525000Y1145000D01*
X1465000D01*
X1460000Y1150000D01*
G01X1500000Y750000D02*
X1505000Y755000D01*
Y795000D01*
X1500000Y800000D01*
G01Y920000D02*
X1505000Y925000D01*
Y935000D01*
X1500000Y940000D01*
G01Y950000D02*
X1505200Y955200D01*
Y995100D01*
G01D02*
X1501000Y999300D01*
Y1029000D01*
X1500000Y1030000D01*
G01X1490000Y1215000D02*
X1560000D01*
G01X1490000Y1210000D02*
Y1215000D01*
G01X1530000Y880000D02*
Y800000D01*
G01Y880000D02*
X1521800Y888200D01*
Y920000D01*
G01X1530000Y930000D02*
X1525000D01*
G01X1521800Y920000D02*
Y926800D01*
X1525000Y930000D01*
G01Y950000D02*
Y930000D01*
G01X1530000Y950000D02*
X1525000D01*
G01X1527500Y1040000D02*
Y1035000D01*
X1525000Y1032500D01*
Y950000D01*
G01X1530000Y1050000D02*
X1525165Y1045165D01*
Y1042335D01*
X1527500Y1040000D01*
G01X1565000Y920000D02*
X1560000D01*
G01Y940000D02*
X1565000D01*
G01X1540000Y1100000D02*
Y1097150D01*
X1541170Y1095980D01*
Y1030000D01*
G01X1560000Y1215000D02*
X1630000D01*
G01X1560000Y1210000D02*
Y1215000D01*
G01X1610000Y720000D02*
X1600000D01*
X1570000Y750000D01*
G01X1590000Y880000D02*
X1565000Y905000D01*
Y920000D01*
G01D02*
Y940000D01*
G01D02*
X1575000Y950000D01*
X1590000D01*
G01X1620000Y940000D02*
X1625000Y935000D01*
Y925000D01*
X1620000Y920000D01*
G01X1611350Y1165000D02*
Y1161350D01*
X1600000Y1150000D01*
G01X1642400Y955000D02*
X1639050Y951650D01*
Y835950D01*
X1640000Y835000D01*
Y830000D01*
G01X1630000Y1215000D02*
X1675500D01*
X1695500Y1195000D01*
X1702500D01*
X1705000Y1197500D01*
Y1205000D01*
X1700000Y1210000D01*
G01X1630000D02*
Y1215000D01*
G01X1655000Y930000D02*
Y885000D01*
X1660000Y880000D01*
G01Y950000D02*
X1655000Y945000D01*
Y930000D01*
G01D02*
X1660000D01*
G01X1690000Y920000D02*
X1695000Y925000D01*
Y935000D01*
X1690000Y940000D01*
G01X1740000Y1042350D02*
Y1050000D01*
G01X1720000Y1240000D02*
Y1155000D01*
G01X1840000Y1210000D02*
X1832000Y1218000D01*
X1778000D01*
X1770000Y1210000D01*
G01X1810000Y835550D02*
Y870000D01*
G01X1880000Y1050000D02*
X1874000D01*
X1848000Y1076000D01*
Y1080000D01*
X1843000Y1085000D01*
X1837500D01*
X1820000Y1067500D01*
Y1060000D01*
X1810000Y1050000D01*
G01X1880000Y870000D02*
Y835550D01*
M02*
