G04 ================== begin FILE IDENTIFICATION RECORD ==================*
G04 Layout Name:  C:/Users/jbayert/Documents/GitHub/ECE424_PCBs/allegro/PCB_ASSIGN2.brd*
G04 Film Name:    TOP*
G04 File Format:  Gerber RS274X*
G04 File Origin:  Cadence Allegro 17.2-P019*
G04 Origin Date:  Sat Sep 26 19:07:52 2020*
G04 *
G04 Layer:  ETCH/TOP*
G04 Layer:  PIN/TOP*
G04 Layer:  VIA CLASS/TOP*
G04 *
G04 Offset:    (0.00 0.00)*
G04 Mirror:    No*
G04 Mode:      Positive*
G04 Rotation:  0*
G04 FullContactRelief:  No*
G04 UndefLineWidth:     0.00*
G04 ================== end FILE IDENTIFICATION RECORD ====================*
%FSLAX25Y25*MOIN*%
%IR0*IPPOS*OFA0.00000B0.00000*MIA0B0*SFA1.00000B1.00000*%
%ADD10C,.06*%
%ADD11C,.027*%
%ADD12R,.06X.06*%
%ADD13C,.01*%
%ADD14C,.02*%
G75*
%LPD*%
G75*
G54D10*
X1230000Y850000D03*
Y900000D03*
Y930000D03*
Y980000D03*
Y1070000D03*
Y1120000D03*
Y1160000D03*
Y1210000D03*
X1250000Y700000D03*
Y710000D03*
Y740000D03*
Y730000D03*
Y770000D03*
Y820000D03*
X1260000Y850000D03*
Y900000D03*
Y930000D03*
Y980000D03*
Y1070000D03*
Y1120000D03*
Y1160000D03*
Y1210000D03*
X1250000Y1240000D03*
X1240000D03*
X1280000Y700000D03*
Y710000D03*
Y740000D03*
Y730000D03*
Y770000D03*
Y820000D03*
X1290000Y850000D03*
Y900000D03*
Y930000D03*
Y980000D03*
Y1070000D03*
Y1120000D03*
Y1160000D03*
Y1210000D03*
X1310000Y700000D03*
Y710000D03*
Y740000D03*
Y730000D03*
Y770000D03*
Y820000D03*
X1320000Y850000D03*
Y900000D03*
Y930000D03*
Y980000D03*
Y1070000D03*
Y1120000D03*
Y1150000D03*
Y1160000D03*
Y1170000D03*
Y1180000D03*
Y1190000D03*
Y1200000D03*
X1340000Y700000D03*
Y710000D03*
Y740000D03*
Y730000D03*
Y770000D03*
Y820000D03*
X1350000Y850000D03*
Y900000D03*
Y930000D03*
Y980000D03*
Y1070000D03*
Y1120000D03*
Y1150000D03*
Y1160000D03*
Y1170000D03*
Y1180000D03*
Y1190000D03*
Y1200000D03*
Y1210000D03*
X1370000Y700000D03*
Y710000D03*
Y740000D03*
Y730000D03*
Y770000D03*
Y820000D03*
X1380000Y850000D03*
Y900000D03*
Y930000D03*
Y980000D03*
X1400000Y700000D03*
Y710000D03*
Y740000D03*
Y730000D03*
Y770000D03*
Y820000D03*
X1410000Y850000D03*
Y900000D03*
Y930000D03*
Y980000D03*
X1390000Y1050000D03*
Y1060000D03*
Y1070000D03*
Y1080000D03*
Y1090000D03*
Y1100000D03*
Y1150000D03*
Y1160000D03*
Y1170000D03*
Y1180000D03*
Y1190000D03*
Y1200000D03*
X1430000Y700000D03*
Y710000D03*
Y740000D03*
Y730000D03*
Y770000D03*
Y820000D03*
X1440000Y850000D03*
Y900000D03*
Y930000D03*
Y980000D03*
X1420000Y1050000D03*
Y1060000D03*
Y1070000D03*
Y1080000D03*
Y1090000D03*
Y1100000D03*
Y1110000D03*
Y1150000D03*
Y1160000D03*
Y1170000D03*
Y1180000D03*
Y1190000D03*
Y1200000D03*
Y1210000D03*
X1460000Y700000D03*
Y710000D03*
Y740000D03*
Y730000D03*
Y770000D03*
Y820000D03*
X1470000Y880000D03*
Y890000D03*
Y900000D03*
Y910000D03*
Y920000D03*
Y930000D03*
Y940000D03*
X1460000Y1050000D03*
Y1060000D03*
Y1070000D03*
Y1080000D03*
Y1090000D03*
Y1100000D03*
Y1150000D03*
Y1160000D03*
Y1170000D03*
Y1180000D03*
Y1190000D03*
Y1200000D03*
X1500000Y720000D03*
Y750000D03*
Y770000D03*
Y800000D03*
Y900000D03*
Y890000D03*
Y880000D03*
Y930000D03*
Y920000D03*
Y910000D03*
Y950000D03*
Y940000D03*
Y980000D03*
Y1030000D03*
X1490000Y1050000D03*
Y1060000D03*
Y1070000D03*
Y1080000D03*
Y1090000D03*
Y1100000D03*
Y1110000D03*
Y1150000D03*
Y1160000D03*
Y1170000D03*
Y1180000D03*
Y1190000D03*
Y1200000D03*
Y1210000D03*
X1530000Y720000D03*
X1520000D03*
X1510000D03*
Y750000D03*
X1520000D03*
X1530000D03*
Y770000D03*
X1520000D03*
X1510000D03*
Y800000D03*
X1520000D03*
X1530000D03*
Y880000D03*
Y890000D03*
Y900000D03*
Y910000D03*
Y920000D03*
Y930000D03*
Y940000D03*
Y980000D03*
Y1030000D03*
Y1050000D03*
Y1060000D03*
Y1070000D03*
Y1080000D03*
Y1090000D03*
Y1100000D03*
Y1150000D03*
Y1160000D03*
Y1170000D03*
Y1180000D03*
Y1190000D03*
Y1200000D03*
X1560000Y720000D03*
X1550000D03*
X1540000D03*
Y750000D03*
X1550000D03*
X1560000D03*
Y770000D03*
X1550000D03*
X1540000D03*
Y800000D03*
X1550000D03*
X1560000D03*
Y900000D03*
Y890000D03*
Y880000D03*
Y930000D03*
Y920000D03*
Y910000D03*
Y950000D03*
Y940000D03*
Y980000D03*
Y1030000D03*
Y1050000D03*
Y1060000D03*
Y1070000D03*
Y1080000D03*
Y1090000D03*
Y1100000D03*
Y1110000D03*
Y1150000D03*
Y1160000D03*
Y1170000D03*
Y1180000D03*
Y1190000D03*
Y1200000D03*
Y1210000D03*
X1570000Y720000D03*
Y770000D03*
X1590000Y880000D03*
Y890000D03*
Y900000D03*
Y910000D03*
Y920000D03*
Y930000D03*
Y940000D03*
Y980000D03*
Y1030000D03*
X1620000Y690000D03*
Y700000D03*
Y720000D03*
Y750000D03*
X1610000D03*
X1600000Y780000D03*
X1620000D03*
X1600000Y830000D03*
X1620000D03*
Y900000D03*
Y890000D03*
Y880000D03*
Y930000D03*
Y920000D03*
Y910000D03*
Y950000D03*
Y940000D03*
Y980000D03*
Y1030000D03*
X1600000Y1050000D03*
Y1060000D03*
Y1070000D03*
Y1080000D03*
Y1090000D03*
Y1100000D03*
Y1150000D03*
Y1160000D03*
Y1170000D03*
Y1180000D03*
Y1190000D03*
Y1200000D03*
X1650000Y690000D03*
Y700000D03*
X1640000Y720000D03*
X1630000D03*
X1640000Y750000D03*
X1630000D03*
X1640000Y780000D03*
Y830000D03*
X1650000Y980000D03*
Y1030000D03*
X1630000Y1050000D03*
Y1060000D03*
Y1070000D03*
Y1080000D03*
Y1090000D03*
Y1100000D03*
Y1110000D03*
Y1150000D03*
Y1160000D03*
Y1170000D03*
Y1180000D03*
Y1190000D03*
Y1200000D03*
Y1210000D03*
X1680000Y690000D03*
Y700000D03*
X1660000Y780000D03*
Y830000D03*
Y880000D03*
Y890000D03*
Y900000D03*
Y910000D03*
Y920000D03*
Y930000D03*
Y940000D03*
X1680000Y980000D03*
Y1030000D03*
X1670000Y1050000D03*
Y1060000D03*
Y1070000D03*
Y1080000D03*
Y1090000D03*
Y1100000D03*
Y1150000D03*
Y1160000D03*
Y1170000D03*
Y1180000D03*
Y1190000D03*
Y1200000D03*
X1690000Y900000D03*
Y890000D03*
Y880000D03*
Y930000D03*
Y920000D03*
Y910000D03*
Y950000D03*
Y940000D03*
X1710000Y980000D03*
Y1030000D03*
X1700000Y1050000D03*
Y1060000D03*
Y1070000D03*
Y1080000D03*
Y1090000D03*
Y1100000D03*
Y1110000D03*
Y1150000D03*
Y1160000D03*
Y1170000D03*
Y1180000D03*
Y1190000D03*
Y1200000D03*
Y1210000D03*
X1720000Y690000D03*
Y700000D03*
X1740000Y870000D03*
Y880000D03*
Y890000D03*
Y900000D03*
Y910000D03*
Y920000D03*
Y980000D03*
Y1030000D03*
Y1050000D03*
Y1060000D03*
Y1070000D03*
Y1080000D03*
Y1090000D03*
Y1100000D03*
Y1150000D03*
Y1160000D03*
Y1170000D03*
Y1180000D03*
Y1190000D03*
Y1200000D03*
X1730000Y1240000D03*
X1720000D03*
X1750000Y690000D03*
Y700000D03*
X1770000Y870000D03*
Y880000D03*
Y890000D03*
Y900000D03*
Y910000D03*
Y920000D03*
Y930000D03*
Y1050000D03*
Y1060000D03*
Y1070000D03*
Y1080000D03*
Y1090000D03*
Y1100000D03*
Y1110000D03*
Y1150000D03*
Y1160000D03*
Y1170000D03*
Y1180000D03*
Y1190000D03*
Y1200000D03*
Y1210000D03*
X1780000Y690000D03*
Y700000D03*
Y750000D03*
Y760000D03*
X1810000Y690000D03*
Y700000D03*
Y870000D03*
Y880000D03*
Y890000D03*
Y900000D03*
Y910000D03*
Y920000D03*
Y1050000D03*
Y1060000D03*
Y1070000D03*
Y1080000D03*
Y1090000D03*
Y1100000D03*
Y1150000D03*
Y1160000D03*
Y1170000D03*
Y1180000D03*
Y1190000D03*
Y1200000D03*
X1840000Y690000D03*
Y700000D03*
Y750000D03*
Y760000D03*
Y870000D03*
Y880000D03*
Y890000D03*
Y900000D03*
Y910000D03*
Y920000D03*
Y930000D03*
Y1050000D03*
Y1060000D03*
Y1070000D03*
Y1080000D03*
Y1090000D03*
Y1100000D03*
Y1110000D03*
Y1150000D03*
Y1160000D03*
Y1170000D03*
Y1180000D03*
Y1190000D03*
Y1200000D03*
Y1210000D03*
X1870000Y690000D03*
Y700000D03*
X1880000Y870000D03*
Y880000D03*
Y890000D03*
Y900000D03*
Y910000D03*
Y920000D03*
Y1050000D03*
Y1060000D03*
Y1070000D03*
Y1080000D03*
Y1090000D03*
Y1100000D03*
Y1150000D03*
Y1160000D03*
Y1170000D03*
Y1180000D03*
Y1190000D03*
Y1200000D03*
X1900000Y690000D03*
Y700000D03*
Y750000D03*
Y760000D03*
X1910000Y870000D03*
Y880000D03*
Y890000D03*
Y900000D03*
Y910000D03*
Y920000D03*
Y930000D03*
Y1050000D03*
Y1060000D03*
Y1070000D03*
Y1080000D03*
Y1090000D03*
Y1100000D03*
Y1110000D03*
Y1150000D03*
Y1160000D03*
Y1170000D03*
Y1180000D03*
Y1190000D03*
Y1200000D03*
Y1210000D03*
X1930000Y690000D03*
Y700000D03*
G54D11*
X1275350Y1194500D03*
X1297500Y722500D03*
X1310000Y1165500D03*
X1337500Y972500D03*
X1377500Y1055000D03*
X1358500Y1085200D03*
X1369350Y1184500D03*
X1410000Y910000D03*
X1404350Y957850D03*
X1401500Y963550D03*
X1383500Y1135500D03*
X1391650Y1121584D03*
X1415500Y785200D03*
X1430650Y925500D03*
X1439500Y1130500D03*
X1415500Y1122200D03*
X1430650Y1118350D03*
X1455500Y838650D03*
X1449200Y861350D03*
X1458950Y914500D03*
Y970350D03*
X1468500Y1008800D03*
X1449200Y1039100D03*
X1450000Y1094500D03*
X1442500Y1107500D03*
X1460000Y1127200D03*
X1484900Y756799D03*
X1481200Y778500D03*
X1500000Y785200D03*
X1490000Y917500D03*
X1495500Y1020800D03*
X1484600Y1025500D03*
X1481750Y1042650D03*
X1475350Y1045500D03*
Y1065349D03*
X1500000Y1197500D03*
X1485500Y1218350D03*
X1511500Y843500D03*
X1521800Y920000D03*
X1518450Y924500D03*
X1505200Y995100D03*
X1518450Y1016250D03*
X1527500Y1040000D03*
X1520350Y1039100D03*
X1505350Y1084500D03*
X1507350Y1150350D03*
X1519050D03*
X1513350Y1195500D03*
X1548350Y900000D03*
X1534500Y960700D03*
X1554050Y987500D03*
X1534500D03*
X1548350Y1008800D03*
X1545500Y1019800D03*
X1541170Y1030000D03*
X1540000Y1100000D03*
X1544200Y1155500D03*
X1540000Y1190000D03*
X1582501Y1022650D03*
X1575200Y1037350D03*
X1567500Y1025500D03*
X1570350Y1042650D03*
X1582501Y1060000D03*
X1572350Y1111650D03*
X1578550Y1119500D03*
X1572350Y1122200D03*
X1614500Y739350D03*
X1615500Y806850D03*
X1620000Y841900D03*
X1594500Y847150D03*
X1595000Y972500D03*
X1620000Y1013400D03*
X1602501Y1034500D03*
X1612200Y1037350D03*
X1607500Y1054500D03*
X1609350Y1094500D03*
X1620000Y1112500D03*
X1611350Y1165000D03*
X1620000Y1155000D03*
X1645250Y850000D03*
X1642400Y955000D03*
X1650350Y940000D03*
X1632500Y987500D03*
X1637500Y980000D03*
X1625500Y991051D03*
X1642200Y1016250D03*
X1625500Y1037500D03*
X1639925Y1112575D03*
X1651650Y1146217D03*
X1669900Y770000D03*
X1667050Y1016950D03*
X1664500Y1003901D03*
X1674500Y1045200D03*
X1681350Y1090000D03*
X1677350Y1084500D03*
X1662500Y1143200D03*
X1694500Y960700D03*
X1702500Y945000D03*
X1687500Y975500D03*
X1700000Y985351D03*
X1684500Y1019800D03*
X1710000Y1045200D03*
X1686500Y1054500D03*
X1706500Y1140350D03*
X1693650Y1127200D03*
X1691201Y1180000D03*
X1727350Y745500D03*
X1735500Y764500D03*
X1724500Y780000D03*
X1732101Y859400D03*
X1732550Y967500D03*
X1740000Y1042350D03*
X1714500Y1022650D03*
X1717350Y1084500D03*
X1735350Y1138350D03*
X1720000Y1155000D03*
X1714500Y1165500D03*
X1729350Y1218500D03*
X1752500Y872500D03*
X1760001Y957850D03*
X1764651Y963550D03*
X1753151Y1080000D03*
X1758001Y1084500D03*
X1760851Y1130500D03*
X1750000Y1184500D03*
X1753151Y1221350D03*
X1790000Y907500D03*
X1778500Y1013400D03*
X1794100Y1105500D03*
X1800000Y1160000D03*
X1810000Y835550D03*
X1827350Y894500D03*
X1803800Y1016950D03*
X1817500Y1140000D03*
X1852500Y862500D03*
X1880000Y835550D03*
X1875500Y841900D03*
X1870000Y852800D03*
X1885650Y1025500D03*
X1863350Y1105350D03*
X1890500Y1164500D03*
X1868800Y1175000D03*
X1896800Y1133350D03*
G54D12*
X1320000Y1210000D03*
X1390000Y1110000D03*
Y1210000D03*
X1470000Y950000D03*
X1460000Y1110000D03*
Y1210000D03*
X1530000Y950000D03*
Y1110000D03*
Y1210000D03*
X1570000Y750000D03*
Y800000D03*
X1590000Y950000D03*
X1610000Y720000D03*
X1600000Y1110000D03*
Y1210000D03*
X1660000Y950000D03*
X1670000Y1110000D03*
Y1210000D03*
X1740000Y930000D03*
Y1110000D03*
Y1210000D03*
X1810000Y930000D03*
Y1110000D03*
Y1210000D03*
X1880000Y930000D03*
Y1110000D03*
Y1210000D03*
G54D13*
G01X1245500Y720000D02*
X1230000Y735500D01*
Y850000D01*
G01Y930000D02*
X1225500Y934500D01*
Y1072000D01*
X1243500Y1090000D01*
X1390000D01*
G01X1230000Y1070000D02*
X1245200Y1085200D01*
X1358500D01*
G01X1664500Y1003901D02*
X1303500D01*
X1253500Y1053901D01*
Y1070350D01*
X1265500Y1082350D01*
X1372275D01*
X1374425Y1084500D01*
X1393375D01*
X1396500Y1087625D01*
Y1091375D01*
X1393375Y1094500D01*
X1249000D01*
X1225500Y1118000D01*
Y1155500D01*
X1230000Y1160000D01*
G01X1320000Y1190000D02*
X1260000D01*
X1230000Y1160000D01*
G01X1250000Y700000D02*
X1245500Y704500D01*
Y720000D01*
G01D02*
X1295969D01*
X1296319Y719650D01*
X1298681D01*
X1299031Y720000D01*
X1500000D01*
G01X1415500Y785200D02*
X1265200D01*
X1250000Y770000D01*
G01X1260000Y1070000D02*
X1309200Y1020800D01*
X1495500D01*
G01X1260000Y1160000D02*
X1264500Y1164500D01*
X1302250D01*
X1306750Y1160000D01*
X1320000D01*
G01X1510000Y715500D02*
X1487000D01*
X1486000Y716500D01*
X1330500D01*
X1318500Y704500D01*
X1284500D01*
X1280000Y700000D01*
G01X1510000Y770000D02*
X1505500Y774500D01*
X1330000D01*
X1319000Y763500D01*
X1286500D01*
X1280000Y770000D01*
G01X1290000Y930000D02*
X1327500Y967500D01*
X1732550D01*
G01X1290000Y1070000D02*
X1294651Y1065349D01*
X1475350D01*
G01X1290000Y1160000D02*
X1306500Y1143500D01*
X1343500D01*
X1350000Y1150000D01*
G01Y1194500D02*
X1275350D01*
G01X1297500Y722500D02*
X1299500Y724500D01*
X1515500D01*
X1520000Y720000D01*
G01X1481200Y778500D02*
X1318500D01*
X1310000Y770000D01*
G01X1455500Y838650D02*
X1331350D01*
X1320000Y850000D01*
G01Y1070000D02*
X1324500Y1074500D01*
X1444651D01*
X1454651Y1084500D01*
X1505350D01*
G01X1320000Y1170000D02*
X1324500Y1174500D01*
X1359750D01*
X1365250Y1180000D01*
X1390000D01*
G01X1310000Y1165500D02*
X1374250D01*
X1378750Y1170000D01*
X1390000D01*
G01Y1200000D02*
X1385500Y1204500D01*
X1324500D01*
X1320000Y1200000D01*
G01X1390000Y1214500D02*
X1324500D01*
X1320000Y1210000D01*
G01X1530000Y720000D02*
X1521500Y711500D01*
X1476000D01*
X1473000Y714500D01*
X1365750D01*
X1351250Y700000D01*
X1340000D01*
G01X1530000Y770000D02*
X1525500Y765500D01*
X1344500D01*
X1340000Y770000D01*
G01X1449200Y861350D02*
X1361350D01*
X1350000Y850000D01*
G01X1458950Y914500D02*
X1365500D01*
X1350000Y930000D01*
G01X1337500Y972500D02*
X1340500Y975500D01*
X1592000D01*
X1595000Y972500D01*
G01X1350000Y1160000D02*
X1380250D01*
X1384750Y1164500D01*
X1396250D01*
X1400750Y1160000D01*
X1420000D01*
G01Y1170000D02*
X1410750D01*
X1406250Y1174500D01*
X1372750D01*
X1368250Y1170000D01*
X1350000D01*
G01X1420000Y1200000D02*
X1414500Y1194500D01*
X1350000D01*
G01Y1190000D02*
Y1194500D01*
G01X1540000Y770000D02*
X1531649Y761649D01*
X1391649D01*
X1370000Y740000D01*
G01X1511500Y843500D02*
X1386500D01*
X1380000Y850000D01*
G01X1430650Y925500D02*
X1384500D01*
X1380000Y930000D01*
G01X1377500Y1055000D02*
X1379850D01*
X1380350Y1055500D01*
X1461000D01*
X1468500Y1048000D01*
Y1047650D01*
X1473500Y1042650D01*
X1481750D01*
G01X1369350Y1184500D02*
X1407500D01*
X1417500Y1174500D01*
X1506400D01*
X1525400Y1155500D01*
X1544200D01*
G01X1550000Y770000D02*
X1539649Y759649D01*
X1419649D01*
X1400000Y740000D01*
G01X1410000Y910000D02*
X1414500Y905500D01*
X1560000D01*
G01X1760001Y957850D02*
X1404350D01*
G01X1401500Y963550D02*
X1764651D01*
G01X1442500Y1107500D02*
X1439500Y1104500D01*
X1394500D01*
X1390000Y1100000D01*
G01X1840000Y1150000D02*
X1825500Y1135500D01*
X1383500D01*
G01X1391650Y1121584D02*
X1403416Y1133350D01*
X1896800D01*
G01X1735350Y1138350D02*
X1732500D01*
X1731650Y1137500D01*
X1492000D01*
X1465000Y1164500D01*
X1407250D01*
X1401750Y1170000D01*
X1390000D01*
G01Y1210000D02*
Y1214500D01*
G01X1814500Y1194500D02*
Y1213700D01*
X1802000Y1226200D01*
X1401700D01*
X1390000Y1214500D01*
G01X1430000Y700000D02*
X1434500Y704500D01*
X1544500D01*
X1560000Y720000D01*
G01X1484900Y756799D02*
X1446799D01*
X1430000Y740000D01*
G01X1500000Y785200D02*
X1415500D01*
G01X1645250Y850000D02*
X1440000D01*
G01X1518450Y924500D02*
X1445500D01*
X1440000Y930000D01*
G01X1470000Y920000D02*
X1436150D01*
X1430650Y925500D01*
G01X1760851Y1130500D02*
X1439500D01*
G01X1572350Y1122200D02*
X1415500D01*
G01X1880000Y1190000D02*
X1899650Y1170350D01*
Y1131850D01*
X1892150Y1124350D01*
X1578700D01*
X1572700Y1118350D01*
X1430650D01*
G01X1753151Y1221350D02*
X1451000D01*
X1432500Y1202850D01*
Y1202500D01*
X1420000Y1190000D01*
G01Y1180000D02*
X1440000D01*
X1460000Y1200000D01*
G01X1570000Y720000D02*
X1550000Y700000D01*
X1460000D01*
G01Y740000D02*
X1477250D01*
X1491750Y754500D01*
X1554500D01*
X1570000Y770000D01*
G01X1470000Y890000D02*
X1474500Y894500D01*
X1635500D01*
X1655500Y914500D01*
X1711450D01*
X1726950Y930000D01*
X1740000D01*
G01X1500000Y910000D02*
X1497000Y913000D01*
X1494531D01*
X1493681Y912150D01*
X1491319D01*
X1488969Y914500D01*
X1458950D01*
G01X1470000Y940000D02*
X1474500Y944500D01*
X1530000D01*
G01X1458950Y970350D02*
X1593119D01*
X1593819Y969650D01*
X1596181D01*
X1596881Y970350D01*
X1868500D01*
X1918500Y1020350D01*
Y1141500D01*
X1910000Y1150000D01*
G01X1548350Y1008800D02*
X1468500D01*
G01X1520350Y1039100D02*
X1449200D01*
G01X1460000Y1080000D02*
X1467550D01*
X1483050Y1064500D01*
X1540250D01*
X1544750Y1060000D01*
X1560000D01*
G01X1530000Y1080000D02*
X1516200Y1093800D01*
Y1094000D01*
X1505700Y1104500D01*
X1465500D01*
X1460000Y1110000D01*
G01X1450000Y1094500D02*
X1502200D01*
X1522200Y1074500D01*
X1560000D01*
G01X1693650Y1127200D02*
X1460000D01*
G01Y1170000D02*
X1477750D01*
X1483250Y1164500D01*
X1493200D01*
X1507350Y1150350D01*
G01X1750000Y1184500D02*
X1465500D01*
X1460000Y1190000D01*
G01X1560000Y770000D02*
X1546799Y756799D01*
X1484900D01*
G01X1520000Y770000D02*
X1511500Y778500D01*
X1481200D01*
G01X1500000Y880000D02*
X1520600Y859400D01*
X1732101D01*
G01X1490000Y917500D02*
X1492500Y915000D01*
X1507350D01*
X1507850Y915500D01*
X1540000D01*
X1549000Y924500D01*
X1585500D01*
X1590000Y920000D01*
G01X1500000Y930000D02*
X1504500Y934500D01*
X1560000D01*
G01X1500000Y980000D02*
X1511051Y991051D01*
X1531191D01*
X1532490Y992350D01*
X1536510D01*
X1537809Y991051D01*
X1550741D01*
X1552040Y992350D01*
X1556060D01*
X1557359Y991051D01*
X1625500D01*
G01X1567500Y1025500D02*
X1484600D01*
G01X1570350Y1042650D02*
X1528881D01*
X1528681Y1042850D01*
X1526319D01*
X1526119Y1042650D01*
X1481750D01*
G01X1560000Y1050000D02*
X1555500Y1045500D01*
X1475350D01*
G01X1490000Y1150000D02*
X1500500Y1139500D01*
X1644933D01*
X1651650Y1146217D01*
G01X1620000Y1155000D02*
Y1149133D01*
X1614367Y1143500D01*
X1521200D01*
X1494700Y1170000D01*
X1490000D01*
G01Y1160000D02*
X1508500Y1141500D01*
X1621500D01*
X1630000Y1150000D01*
G01X1500000Y1197500D02*
X1497000Y1194500D01*
X1489000D01*
X1485500Y1198000D01*
Y1218350D01*
G01X1490000Y1200000D02*
X1508500Y1218500D01*
X1729350D01*
G01X1740000Y1190000D02*
X1712750D01*
X1708250Y1194500D01*
X1661500D01*
X1639500Y1216500D01*
X1524500D01*
X1498000Y1190000D01*
X1490000D01*
G01X1727350Y745500D02*
X1549000D01*
X1524500Y721000D01*
Y718000D01*
X1522000Y715500D01*
X1510000D01*
G01Y720000D02*
Y715500D01*
G01X1868000Y859650D02*
X1736251D01*
X1733651Y862250D01*
X1540500D01*
X1523500Y879250D01*
Y883500D01*
X1530000Y890000D01*
G01Y920000D02*
X1525500Y924500D01*
X1518450D01*
G01X1530000Y944500D02*
X1590000D01*
G01X1530000Y940000D02*
Y944500D01*
G01X1632500Y987500D02*
X1630150D01*
X1629449Y988201D01*
X1557380D01*
X1555231Y990350D01*
X1552869D01*
X1550720Y988201D01*
X1537830D01*
X1535681Y990350D01*
X1533319D01*
X1531650Y988681D01*
Y986351D01*
X1530000Y984701D01*
Y980000D01*
G01X1642200Y1016250D02*
X1518450D01*
G01X1630000Y1060000D02*
X1625500Y1064500D01*
X1553250D01*
X1547750Y1070000D01*
X1530000D01*
G01Y1100000D02*
X1534500Y1095500D01*
X1569800D01*
G01X1530000Y1180000D02*
X1525500Y1175500D01*
Y1168000D01*
X1528000Y1165500D01*
X1582250D01*
X1586750Y1170000D01*
X1600000D01*
G01Y1180000D02*
X1573250D01*
X1567750Y1174500D01*
X1534500D01*
X1530000Y1170000D01*
G01X1600000Y1160000D02*
X1604500Y1155500D01*
Y1148000D01*
X1602000Y1145500D01*
X1523900D01*
X1519050Y1150350D01*
G01X1530000Y1190000D02*
X1540000D01*
G01X1560000Y1195500D02*
X1513350D01*
G01X1600000Y1200000D02*
X1595500Y1204500D01*
X1534500D01*
X1530000Y1200000D01*
G01Y1210000D02*
X1534500Y1214500D01*
X1595500D01*
X1600000Y1210000D01*
G01X1614500Y739350D02*
X1579350D01*
X1560000Y720000D01*
G01Y880000D02*
X1575750Y864250D01*
X1736076D01*
X1737826Y862500D01*
X1852500D01*
G01X1560000Y900000D02*
X1548350D01*
G01X1560000Y910000D02*
Y905500D01*
G01X1702500Y945000D02*
X1697500Y940000D01*
Y931000D01*
X1691000Y924500D01*
X1649000D01*
X1630000Y905500D01*
X1560000D01*
G01Y930000D02*
Y934500D01*
G01D02*
X1620000D01*
G01X1534500Y960700D02*
X1694500D01*
G01X1534500Y987500D02*
X1537500Y984500D01*
X1551050D01*
X1554050Y987500D01*
G01X1684500Y1019800D02*
X1545500D01*
G01X1630000Y1090000D02*
X1622250D01*
X1606750Y1074500D01*
X1560000D01*
G01Y1070000D02*
Y1074500D01*
G01X1630000Y1170000D02*
X1625500Y1174500D01*
X1580750D01*
X1576250Y1170000D01*
X1560000D01*
G01Y1160000D02*
X1588250D01*
X1592750Y1164500D01*
X1606250D01*
X1610750Y1160000D01*
X1630000D01*
G01Y1190000D02*
X1624500Y1195500D01*
X1560000D01*
G01Y1200000D02*
Y1195500D01*
G01X1669900Y770000D02*
X1570000D01*
G01X1590000Y940000D02*
Y944500D01*
G01X1650350Y940000D02*
X1645850Y944500D01*
X1590000D01*
G01X1714500Y1022650D02*
X1582501D01*
G01X1612200Y1037350D02*
X1575200D01*
G01X1885650Y1025500D02*
X1567500D01*
G01X1600000Y1060000D02*
X1582501D01*
G01X1600000Y1080000D02*
X1585300D01*
X1569800Y1095500D01*
G01D02*
X1578800Y1104500D01*
X1695500D01*
X1700000Y1100000D01*
G01X1901650Y1121500D02*
X1899650Y1119500D01*
X1578550D01*
G01X1620000Y1112500D02*
X1618000Y1114500D01*
X1593126D01*
X1590276Y1111650D01*
X1572350D01*
G01X1615500Y806850D02*
X1618500D01*
X1640000Y785350D01*
Y780000D01*
G01X1912500Y847150D02*
X1594500D01*
G01X1620000Y841900D02*
X1875500D01*
G01X1620000Y890000D02*
X1649250D01*
X1653750Y894500D01*
X1827350D01*
G01X1620000Y934500D02*
Y930000D01*
G01Y934500D02*
X1685500D01*
X1690000Y930000D01*
G01X1687500Y975500D02*
X1598000D01*
X1595000Y972500D01*
G01X1778500Y1013400D02*
X1620000D01*
G01X1840000Y1050000D02*
X1824500Y1034500D01*
X1602501D01*
G01X1607500Y1054500D02*
X1647750D01*
X1653250Y1060000D01*
X1670000D01*
G01X1600000Y1070000D02*
X1630000D01*
G01X1700000Y1065500D02*
X1667000D01*
X1638000Y1094500D01*
X1609350D01*
G01X1630000Y1100000D02*
X1600000D01*
G01X1660000Y940000D02*
X1650350D01*
G01X1637500Y980000D02*
X1642851Y985351D01*
X1700000D01*
G01X1686500Y1054500D02*
X1660750D01*
X1656250Y1050000D01*
X1630000D01*
G01X1625500Y1037500D02*
X1813500D01*
X1830500Y1054500D01*
X1854750D01*
X1870250Y1070000D01*
X1880000D01*
G01X1639925Y1112575D02*
X1642500Y1110000D01*
X1670000D01*
G01X1630000Y1100000D02*
X1652250D01*
X1656750Y1095500D01*
X1735500D01*
X1740000Y1100000D01*
G01X1706500Y1140350D02*
X1661319D01*
X1659650Y1142019D01*
Y1144381D01*
X1660500Y1145232D01*
Y1147000D01*
X1647500Y1160000D01*
X1630000D01*
G01X1724500Y780000D02*
X1660000D01*
G01Y890000D02*
X1667250D01*
X1681750Y875500D01*
X1749500D01*
X1752500Y872500D01*
G01X1790000Y907500D02*
X1788000Y905500D01*
X1664500D01*
X1660000Y910000D01*
G01X1667050Y1016950D02*
X1803800D01*
G01X1840000Y1060000D02*
X1832750D01*
X1812250Y1039500D01*
X1680200D01*
X1674500Y1045200D01*
G01X1670000Y1070000D02*
X1674500Y1074500D01*
X1771000D01*
X1774500Y1078000D01*
Y1085500D01*
X1770000Y1090000D01*
G01X1677350Y1084500D02*
X1717350D01*
G01X1740000Y1180000D02*
X1711250D01*
X1705750Y1174500D01*
X1674500D01*
X1670000Y1170000D01*
G01X1817500Y1140000D02*
X1814300Y1143200D01*
X1662500D01*
G01X1670000Y1180000D02*
X1691201D01*
G01X1740000Y1200000D02*
X1726750D01*
X1722250Y1204500D01*
X1674500D01*
X1670000Y1200000D01*
G01X1740000Y1210000D02*
X1735500Y1214500D01*
X1674500D01*
X1670000Y1210000D01*
G01X1770000Y890000D02*
X1753250D01*
X1747750Y884500D01*
X1694500D01*
X1690000Y880000D01*
G01X1710000Y980000D02*
X1728500Y998500D01*
X1863000D01*
X1888500Y1024000D01*
Y1091500D01*
X1880000Y1100000D01*
G01X1710000Y1045200D02*
X1795500D01*
X1802500Y1052200D01*
Y1052500D01*
X1810000Y1060000D01*
G01X1840000Y1090000D02*
X1846500Y1083500D01*
Y1070000D01*
X1841000Y1064500D01*
X1803000D01*
X1794000Y1055500D01*
X1728884D01*
X1724384Y1060000D01*
X1700000D01*
G01X1840000Y1100000D02*
X1834250D01*
X1818750Y1084500D01*
X1794000D01*
X1775000Y1065500D01*
X1700000D01*
G01Y1070000D02*
Y1065500D01*
G01Y1090000D02*
X1681350D01*
G01X1770000Y1170000D02*
X1765500Y1174500D01*
X1716750D01*
X1712250Y1170000D01*
X1700000D01*
G01X1770000Y1160000D02*
X1765500Y1164500D01*
X1732750D01*
X1728250Y1160000D01*
X1700000D01*
G01X1770000Y1190000D02*
X1765500Y1194500D01*
X1721250D01*
X1715750Y1200000D01*
X1700000D01*
G01X1900000Y760000D02*
X1895500Y764500D01*
X1735500D01*
G01X1740000Y880000D02*
X1756250D01*
X1760750Y884500D01*
X1821700D01*
X1832200Y895000D01*
Y909000D01*
X1837700Y914500D01*
X1904500D01*
X1910000Y920000D01*
G01X1740000Y980000D02*
X1850500D01*
X1900500Y1030000D01*
Y1060500D01*
X1910000Y1070000D01*
G01X1740000Y1080000D02*
X1753151D01*
G01X1794100Y1105500D02*
X1744500D01*
X1740000Y1110000D01*
G01X1717350Y1084500D02*
X1758001D01*
G01X1740000Y1100000D02*
X1770000D01*
G01X1740000Y1170000D02*
X1725600D01*
X1721100Y1165500D01*
X1714500D01*
G01X1752500Y872500D02*
X1755500Y875500D01*
X1765500D01*
X1770000Y880000D01*
G01X1810000Y1070000D02*
X1797500D01*
X1787500Y1060000D01*
X1770000D01*
G01X1840000Y1070000D02*
X1833500Y1076500D01*
Y1090000D01*
X1838000Y1094500D01*
X1843375D01*
X1846500Y1097625D01*
Y1101375D01*
X1843375Y1104500D01*
X1825500D01*
X1815500Y1094500D01*
X1774500D01*
X1770000Y1090000D01*
G01Y1180000D02*
X1790000Y1200000D01*
X1810000D01*
G01Y1100000D02*
X1804500Y1105500D01*
X1794100D01*
G01X1800000Y1160000D02*
Y1162500D01*
X1805500Y1168000D01*
Y1192000D01*
X1808000Y1194500D01*
X1814500D01*
G01X1810000Y1160000D02*
X1814500Y1164500D01*
X1890500D01*
G01X1868800Y1175000D02*
X1859300Y1184500D01*
X1815500D01*
X1810000Y1190000D01*
G01X1840000D02*
X1835500Y1194500D01*
X1814500D01*
G01X1852500Y862500D02*
Y870500D01*
X1872000Y890000D01*
X1880000D01*
G01Y900000D02*
X1886500Y893500D01*
Y889500D01*
X1881500Y884500D01*
X1878000D01*
X1868000Y874500D01*
Y859650D01*
G01D02*
X1870000Y857650D01*
Y852800D01*
G01X1880000Y880000D02*
X1891500D01*
X1901500Y890000D01*
X1910000D01*
G01X1880000Y930000D02*
X1885500Y924500D01*
X1912000D01*
X1914500Y922000D01*
Y849150D01*
X1912500Y847150D01*
G01X1910000Y1080000D02*
X1894500Y1095500D01*
Y1095850D01*
X1885000Y1105350D01*
X1863350D01*
G01X1880000Y1110000D02*
X1898250D01*
X1902750Y1105500D01*
X1912000D01*
X1914500Y1108000D01*
Y1112000D01*
X1905000Y1121500D01*
X1901650D01*
G01X1880000Y1170000D02*
X1875000Y1175000D01*
X1868800D01*
G01X1880000Y1210000D02*
X1901650Y1188350D01*
Y1121500D01*
G01X1912500Y847150D02*
Y717500D01*
X1930000Y700000D01*
G01X1910000Y1180000D02*
Y1170000D01*
G54D14*
G01X1230000Y900000D02*
X1245803D01*
G01X1230000Y980000D02*
X1245803D01*
G01X1230000Y1120000D02*
X1260000D01*
G01X1230000Y1210000D02*
X1240000D01*
G01X1280000Y710000D02*
X1250000D01*
G01Y820000D02*
X1280000D01*
G01X1245803Y900000D02*
X1260000D01*
G01X1245803Y980000D02*
Y900000D01*
G01X1260000D02*
X1290000D01*
G01X1245803Y980000D02*
X1260000D01*
G01D02*
X1290000D01*
G01Y1120000D02*
X1260000D01*
G01Y1210000D02*
X1240000D01*
G01D02*
Y1240000D01*
G01X1290000Y1210000D02*
X1260000D01*
G01X1310000Y710000D02*
X1280000D01*
G01X1310000Y820000D02*
X1280000D01*
G01X1320000Y900000D02*
X1290000D01*
G01X1320000Y980000D02*
X1290000D01*
G01X1320000Y1120000D02*
X1290000D01*
G01X1340000Y730000D02*
X1310000D01*
G01X1340000Y820000D02*
X1310000D01*
G01X1350000Y900000D02*
X1320000D01*
G01X1350000Y980000D02*
X1320000D01*
G01X1350000Y1120000D02*
X1320000D01*
G01Y1150000D02*
X1325000Y1155000D01*
X1390000D01*
G01X1370000Y730000D02*
X1340000D01*
G01X1370000Y820000D02*
X1340000D01*
G01X1380000Y900000D02*
X1350000D01*
G01X1380000Y980000D02*
X1350000D01*
G01X1420000Y1115000D02*
X1355000D01*
X1350000Y1120000D01*
G01X1400000Y710000D02*
X1370000D01*
G01X1400000Y820000D02*
X1370000D01*
G01X1410000Y900000D02*
X1380000D01*
G01X1410000Y980000D02*
X1380000D01*
G01X1430000Y710000D02*
X1400000D01*
G01X1430000Y820000D02*
X1400000D01*
G01X1440000Y900000D02*
X1410000D01*
G01X1440000Y980000D02*
X1410000D01*
G01X1390000Y1050000D02*
X1397000Y1043000D01*
X1445850D01*
G01X1390000Y1155000D02*
X1455000D01*
X1460000Y1150000D01*
G01X1390000Y1155000D02*
Y1150000D01*
G01X1430000Y710000D02*
X1460000D01*
G01Y820000D02*
X1430000D01*
G01X1505200Y995100D02*
X1455100D01*
X1440000Y980000D01*
G01X1420000Y1110000D02*
Y1115000D01*
G01X1490000Y1110000D02*
X1485000Y1115000D01*
X1420000D01*
G01X1460000Y730000D02*
X1480000D01*
X1500000Y750000D01*
G01X1470000Y930000D02*
X1479000D01*
X1489000Y940000D01*
X1500000D01*
G01X1460000Y1050000D02*
X1453000Y1043000D01*
X1445850D01*
G01X1527500Y1040000D02*
X1522984Y1035484D01*
X1447679D01*
X1445850Y1037313D01*
Y1043000D01*
G01X1500000Y750000D02*
X1510000D01*
G01Y800000D02*
X1500000D01*
G01X1521800Y920000D02*
X1500000D01*
G01X1560000Y955000D02*
X1505000D01*
X1500000Y950000D01*
G01Y1030000D02*
X1530000D01*
G01X1490000Y1110000D02*
X1519200D01*
X1524200Y1105000D01*
X1535000D01*
X1540000Y1100000D01*
G01Y750000D02*
X1530000D01*
G01D02*
X1520000D01*
G01D02*
X1510000D01*
G01X1530000Y800000D02*
X1540000D01*
G01X1530000D02*
X1520000D01*
G01D02*
X1510000D01*
G01X1530000Y880000D02*
X1535000Y885000D01*
X1585000D01*
X1590000Y880000D01*
G01X1600000Y1050000D02*
X1595000Y1055000D01*
X1535000D01*
X1530000Y1050000D01*
G01Y1030000D02*
X1541170D01*
G01X1600000Y1150000D02*
X1595000Y1155000D01*
X1553050D01*
X1548050Y1150000D01*
X1530000D01*
G01X1570000Y750000D02*
X1560000D01*
G01D02*
X1550000D01*
G01D02*
X1540000D01*
G01X1570000Y800000D02*
X1560000D01*
G01D02*
X1550000D01*
G01D02*
X1540000D01*
G01X1560000Y920000D02*
X1565000Y915000D01*
X1615000D01*
X1620000Y920000D01*
G01Y955000D02*
X1560000D01*
G01Y950000D02*
Y955000D01*
G01X1590000Y1030000D02*
X1560000D01*
G01X1541170D02*
X1560000D01*
G01X1630002Y1117000D02*
X1586400D01*
X1584400Y1115000D01*
X1565000D01*
X1560000Y1110000D01*
G01X1540000Y1100000D02*
X1545000Y1105000D01*
X1555000D01*
X1560000Y1110000D01*
G01X1620000Y1030000D02*
X1590000D01*
G01X1620000Y690000D02*
X1630000D01*
G01Y720000D02*
X1620000D01*
G01D02*
X1610000D01*
G01X1640000Y830000D02*
X1620000D01*
G01X1600000D02*
X1620000D01*
G01X1660000Y930000D02*
X1636000D01*
X1626000Y920000D01*
X1620000D01*
G01Y950000D02*
Y955000D01*
G01X1642400D02*
X1620000D01*
G01X1670000Y1050000D02*
X1665000Y1045000D01*
X1605000D01*
X1600000Y1050000D01*
G01X1650000Y1030000D02*
X1620000D01*
G01X1675000Y1155000D02*
Y1162500D01*
X1672500Y1165000D01*
X1611350D01*
G01X1650000Y690000D02*
X1630000D01*
G01D02*
Y720000D01*
G01X1680000Y690000D02*
X1650000D01*
G01X1640000Y720000D02*
X1630000D01*
G01X1660000Y830000D02*
X1640000D01*
G01X1690000Y950000D02*
X1685000Y955000D01*
X1642400D01*
G01X1680000Y1030000D02*
X1650000D01*
G01X1630000Y1110000D02*
Y1115000D01*
X1630002D01*
Y1117000D01*
G01D02*
X1698000D01*
X1700000Y1115000D01*
G01X1680000Y690000D02*
X1720000D01*
G01X1660000Y880000D02*
X1670000Y870000D01*
X1740000D01*
G01X1660000Y950000D02*
X1665000Y945000D01*
X1685000D01*
X1690000Y940000D01*
G01X1670000Y1050000D02*
X1688201D01*
X1693201Y1055000D01*
X1713634D01*
X1718634Y1050000D01*
X1740000D01*
G01X1710000Y1030000D02*
X1680000D01*
G01X1670000Y1150000D02*
X1672000D01*
X1675000Y1153000D01*
Y1155000D01*
G01X1720000D02*
X1675000D01*
G01X1770000Y935000D02*
X1755000Y950000D01*
X1690000D01*
G01X1740000Y1030000D02*
X1710000D01*
G01X1700000Y1110000D02*
Y1115000D01*
G01D02*
X1770000D01*
G01X1700000Y1210000D02*
X1727500D01*
X1732500Y1205000D01*
X1765000D01*
X1770000Y1210000D01*
G01X1720000Y690000D02*
X1750000D01*
G01X1740000Y870000D02*
X1745000Y865000D01*
X1805000D01*
X1810000Y870000D01*
G01X1740000Y1042350D02*
X1802350D01*
X1810000Y1050000D01*
G01X1740000Y1150000D02*
Y1155000D01*
G01D02*
X1720000D01*
G01X1810000D02*
X1740000D01*
G01X1780000Y690000D02*
X1750000D01*
G01X1770000Y930000D02*
Y935000D01*
G01X1840000D02*
X1770000D01*
G01Y1110000D02*
Y1115000D01*
G01X1840000D02*
X1770000D01*
G01X1810000Y690000D02*
X1788200D01*
G01D02*
Y750000D01*
G01Y690000D02*
X1780000D01*
G01X1840000Y750000D02*
X1788200D01*
G01X1780000D02*
X1788200D01*
G01X1810000Y690000D02*
X1840000D01*
G01X1880000Y835550D02*
X1810000D01*
G01X1880000Y1150000D02*
X1875000Y1155000D01*
X1810000D01*
G01Y1150000D02*
Y1155000D01*
G01X1870000Y690000D02*
X1840000D01*
G01X1900000Y750000D02*
X1840000D01*
G01Y930000D02*
Y935000D01*
G01X1910000Y930000D02*
X1905000Y935000D01*
X1840000D01*
G01Y1110000D02*
Y1115000D01*
G01X1910000Y1110000D02*
X1905000Y1115000D01*
X1840000D01*
G01X1910000Y1210000D02*
X1902000Y1218000D01*
X1848000D01*
X1840000Y1210000D01*
G01X1900000Y690000D02*
X1870000D01*
G01X1930000D02*
X1900000D01*
M02*
